<svg id="wave" style="transform:rotate(0deg); transition: 0.3s" viewBox="0 0 1440 270" version="1.1" xmlns="http://www.w3.org/2000/svg"><defs><linearGradient id="sw-gradient-0" x1="0" x2="0" y1="1" y2="0"><stop stop-color="rgba(167, 139, 250, 1)" offset="0%"></stop><stop stop-color="rgba(255, 61.986, 232.331, 1)" offset="100%"></stop></linearGradient></defs><path style="transform:translate(0, 0px); opacity:1" fill="url(#sw-gradient-0)" d="M0,54L10,58.5C20,63,40,72,60,81C80,90,100,99,120,103.5C140,108,160,108,180,112.5C200,117,220,126,240,126C260,126,280,117,300,121.5C320,126,340,144,360,153C380,162,400,162,420,157.5C440,153,460,144,480,135C500,126,520,117,540,117C560,117,580,126,600,135C620,144,640,153,660,157.5C680,162,700,162,720,139.5C740,117,760,72,780,63C800,54,820,81,840,103.5C860,126,880,144,900,144C920,144,940,126,960,139.5C980,153,1000,198,1020,193.5C1040,189,1060,135,1080,121.5C1100,108,1120,135,1140,139.5C1160,144,1180,126,1200,117C1220,108,1240,108,1260,112.5C1280,117,1300,126,1320,117C1340,108,1360,81,1380,67.5C1400,54,1420,54,1430,54L1440,54L1440,270L1430,270C1420,270,1400,270,1380,270C1360,270,1340,270,1320,270C1300,270,1280,270,1260,270C1240,270,1220,270,1200,270C1180,270,1160,270,1140,270C1120,270,1100,270,1080,270C1060,270,1040,270,1020,270C1000,270,980,270,960,270C940,270,920,270,900,270C880,270,860,270,840,270C820,270,800,270,780,270C760,270,740,270,720,270C700,270,680,270,660,270C640,270,620,270,600,270C580,270,560,270,540,270C520,270,500,270,480,270C460,270,440,270,420,270C400,270,380,270,360,270C340,270,320,270,300,270C280,270,260,270,240,270C220,270,200,270,180,270C160,270,140,270,120,270C100,270,80,270,60,270C40,270,20,270,10,270L0,270Z"></path><defs><linearGradient id="sw-gradient-1" x1="0" x2="0" y1="1" y2="0"><stop stop-color="rgba(167, 139, 250, 1)" offset="0%"></stop><stop stop-color="rgba(236.894, 103.742, 255, 1)" offset="100%"></stop></linearGradient></defs><path style="transform:translate(0, 50px); opacity:0.9" fill="url(#sw-gradient-1)" d="M0,216L10,216C20,216,40,216,60,193.5C80,171,100,126,120,90C140,54,160,27,180,27C200,27,220,54,240,76.5C260,99,280,117,300,130.5C320,144,340,153,360,135C380,117,400,72,420,67.5C440,63,460,99,480,135C500,171,520,207,540,211.5C560,216,580,189,600,171C620,153,640,144,660,135C680,126,700,117,720,135C740,153,760,198,780,207C800,216,820,189,840,171C860,153,880,144,900,135C920,126,940,117,960,103.5C980,90,1000,72,1020,54C1040,36,1060,18,1080,13.5C1100,9,1120,18,1140,18C1160,18,1180,9,1200,22.5C1220,36,1240,72,1260,90C1280,108,1300,108,1320,99C1340,90,1360,72,1380,94.5C1400,117,1420,180,1430,211.5L1440,243L1440,270L1430,270C1420,270,1400,270,1380,270C1360,270,1340,270,1320,270C1300,270,1280,270,1260,270C1240,270,1220,270,1200,270C1180,270,1160,270,1140,270C1120,270,1100,270,1080,270C1060,270,1040,270,1020,270C1000,270,980,270,960,270C940,270,920,270,900,270C880,270,860,270,840,270C820,270,800,270,780,270C760,270,740,270,720,270C700,270,680,270,660,270C640,270,620,270,600,270C580,270,560,270,540,270C520,270,500,270,480,270C460,270,440,270,420,270C400,270,380,270,360,270C340,270,320,270,300,270C280,270,260,270,240,270C220,270,200,270,180,270C160,270,140,270,120,270C100,270,80,270,60,270C40,270,20,270,10,270L0,270Z"></path></svg>
