<?xml version="1.0" encoding="UTF-8" standalone="no"?>
<!-- Created with Inkscape (http://www.inkscape.org/) -->

<svg
   version="1.1"
   id="svg2"
   width="3333.3333"
   height="3333.3333"
   viewBox="0 0 3333.3333 3333.3333"
   sodipodi:docname="bwink_ppl_21_single_05.eps"
   xmlns:inkscape="http://www.inkscape.org/namespaces/inkscape"
   xmlns:sodipodi="http://sodipodi.sourceforge.net/DTD/sodipodi-0.dtd"
   xmlns="http://www.w3.org/2000/svg"
   xmlns:svg="http://www.w3.org/2000/svg">
  <defs
     id="defs6" />
  <sodipodi:namedview
     id="namedview4"
     pagecolor="#ffffff"
     bordercolor="#000000"
     borderopacity="0.25"
     inkscape:showpageshadow="2"
     inkscape:pageopacity="0.0"
     inkscape:pagecheckerboard="0"
     inkscape:deskcolor="#d1d1d1" />
  <g
     id="g8"
     inkscape:groupmode="layer"
     inkscape:label="ink_ext_XXXXXX"
     transform="matrix(1.3333333,0,0,-1.3333333,0,3333.3333)">
    <g
       id="g10"
       transform="scale(0.1)">
      <path
         d="M 25000,0 H 0 V 25000 H 25000 V 0"
         style="fill:#ffffff;fill-opacity:1;fill-rule:nonzero;stroke:none"
         id="path12" />
      <path
         d="m 11389.6,16610.5 c 66.8,-123.2 233.7,-430.7 569.7,-532.8 464.4,-141 696.6,278.9 1313.9,296.4 787.7,22.4 968.3,-408.5 1668.8,-301.2 333.6,51.1 493,189.5 625.9,475.2 183,393.7 91.3,736.8 -175.3,988 -162.4,153.1 -143.6,98.8 -230.2,239.3 -185.3,301 126.8,524.9 11.4,887.5 -109.7,344.7 -527.7,570.7 -808.5,653.2 -329.7,96.8 -454.2,-9.1 -660.7,123.3 -73.4,47 -190.1,145.2 -348.8,684.5 -200.9,683 -86.2,771.9 -258.1,933.6 -241.5,227.2 -506.7,88.4 -855.4,399.2 -103.9,92.7 -160.6,176.6 -283.2,191.1 -172.1,20.5 -387.2,-106 -427.1,-258.9 -54.2,-207.2 243.7,-347.7 403.4,-604 231,-370.8 37.2,-766.7 -201.7,-1467 -444.1,-1301.3 -693,-2064.4 -344.1,-2707.4"
         style="fill:#000000;fill-opacity:1;fill-rule:nonzero;stroke:none"
         id="path14" />
      <path
         d="m 11165.1,9372 c -2.6,167.7 -132.2,492.9 -123.3,1839.6 10.6,1620.3 132.1,4629.7 132.1,4629.7 l 1943.3,421.7 c 0,0 289.5,-796.3 422.2,-1498.8 132.6,-702.5 54.8,-1926.7 92.4,-2390.8 37.7,-464.1 359.4,-874.4 396.5,-1311.5 20,-235.8 -127,-2307.8 -127,-2307.8 l -300.1,4.7 -39.8,490 c -35.2,281.8 -253.9,837 -431.7,1531.5 -13.2,51.4 -39.4,511 -52.9,563.3 -263.5,1019.2 -658.2,2242 -792.9,2702.1 -18.5,63.3 -73.7,-173.2 -83.5,-238.3 -74.3,-496.4 -322.9,-1807.9 -330.3,-2097.5 -9.8,-386.8 -46.8,-411.6 -70.7,-885.6 -25.2,-498.4 -396.4,-1971.6 -396.4,-1971.6 l -258.4,-185.6 c 0,0 23.4,514.2 20.5,704.9"
         style="fill:#ffffff;fill-opacity:1;fill-rule:nonzero;stroke:none"
         id="path16" />
      <path
         d="m 11195.6,15823.1 c -9.9,-248.5 -121.3,-3073.8 -131.4,-4611.7 -6.6,-1011 63.9,-1439 101.8,-1668.9 12.1,-73.7 20.9,-126.9 21.5,-170.2 2.4,-155.5 -12.8,-529.1 -18.4,-660 l 214.1,153.8 c 29.4,117.5 370,1487.7 393.8,1959.3 11.7,231.3 26.5,356.8 39.7,467.6 13.9,118 26,219.8 31,417.5 4.9,192.5 114,824.2 210.3,1381.6 48.8,282.6 94.9,549.6 120.2,718.6 0.4,2.6 42.1,264.4 96.1,268.1 6.9,0.4 23.7,-1.3 31.2,-26.8 36.4,-124.5 93.1,-308.8 158.8,-522.3 176,-572.2 442,-1436.9 634.2,-2180.5 6.8,-26.3 15.3,-131.3 27.4,-288.6 9.1,-117.7 19.5,-251.1 25.5,-274.7 82,-320.5 171.4,-606.8 250.3,-859.4 90.9,-291.3 162.8,-521.4 181.9,-674.9 l -1.2,-0.2 c 2.3,-12.6 4.2,-35.1 7.6,-77.4 l 31.9,-393.1 258.5,-4 c 15.5,219.5 144.1,2064.4 125.5,2283.2 -17.9,211.1 -102.2,413.3 -191.5,627.3 -91.2,218.5 -185.5,444.4 -204.9,684.2 -13.3,163.6 -12.3,419.1 -11.2,714.8 2.1,543.3 4.7,1219.4 -81,1673.6 -119.7,633.9 -370.7,1353.4 -414.6,1476.9 z m -51,-7178.5 c -3.7,0 -7.3,0.9 -10.7,2.8 -7.5,4 -12.1,12.1 -11.7,20.7 0.2,5.1 23.4,515.7 20.5,703.6 -0.7,39.8 -9.2,91.7 -21,163.5 -38.1,231.2 -109,661.7 -102.4,1676.5 10.5,1602.2 131,4600.4 132.2,4630.5 0.4,10.2 7.7,18.9 17.7,21 l 1943.3,421.7 c 10.9,2.5 22,-3.7 25.8,-14.2 2.9,-8 291.7,-806.1 423.1,-1502.4 86.5,-458.3 83.9,-1136.9 81.8,-1682 -1.1,-294.8 -2.1,-549.4 11,-711.1 18.9,-232.6 111.7,-455.2 201.6,-670.5 86.7,-207.8 176.3,-422.7 194.8,-640.9 20,-234.9 -120.9,-2226.6 -126.9,-2311.2 -0.8,-11.9 -10.9,-21.1 -22.7,-20.9 l -300.1,4.7 c -11.6,0.2 -21.1,9.1 -22.1,20.6 -13.3,164.9 -38.7,476.9 -39.7,489.4 -18.8,149.5 -90,377.8 -180.2,666.7 -79.1,253.2 -168.6,540.1 -251,861.6 -6.5,25.6 -14.4,123.8 -26.7,282.5 -9.3,120.2 -19.8,256.4 -26.1,280.8 -192,742.6 -457.8,1606.7 -633.7,2178.5 -60.1,195.3 -112.6,366.2 -149.1,489.4 -18.1,-51.7 -41.9,-150 -49.7,-201.9 -25.4,-169.4 -71.5,-436.6 -120.4,-719.6 -96,-555.8 -204.8,-1185.8 -209.6,-1375 -5.1,-199.8 -17.3,-302.6 -31.4,-421.6 -13,-110.1 -27.8,-234.9 -39.4,-464.6 -25,-494.9 -393.4,-1961.2 -397.1,-1976 -1.3,-5.1 -4.3,-9.6 -8.6,-12.7 l -258.4,-185.6 c -3.9,-2.8 -8.5,-4.3 -13.1,-4.3"
         style="fill:#000000;fill-opacity:1;fill-rule:nonzero;stroke:none"
         id="path18" />
      <path
         d="m 13164.9,16651 c 281.9,-827.3 661.2,-2775.2 713.6,-3290 -56.1,-60.5 -136.8,-107 -236.3,-142.1 -23.2,-8.3 -72.8,-22.9 -72.8,-22.9 l -314.1,721.5 -92.2,-783.6 c 0,0 -345.9,-10.4 -533.3,-2.5 -593.3,25 -1251.7,123.9 -1676.2,166.3 -4,445.7 149.8,2508.4 308.4,3476.6 l 1902.9,-123.3"
         style="fill:#000000;fill-opacity:1;fill-rule:nonzero;stroke:none"
         id="path20" />
      <path
         d="m 13525.4,9374.5 c 0,0 15.5,-225.5 -51.6,-344.8 -67.1,-119.4 53.2,-470.1 53.2,-470.1 0,0 354.6,-190.8 452.7,-61.8 94,123.5 -142,533.4 -51.7,899.1 4,16 -17.2,42.1 -18.3,58.8 -4,59.3 9.6,101.8 12.8,124.6 27.8,197.8 -397.1,-205.8 -397.1,-205.8"
         style="fill:#ffffff;fill-opacity:1;fill-rule:nonzero;stroke:none"
         id="path22" />
      <path
         d="m 14056.5,8658.9 c -0.9,23.7 -27.9,37.3 -47.7,24.1 -28.1,-18.6 -62.4,-48.1 -85.9,-90.7 0,0 -203,189.1 -408.7,164.9 l -60.7,106.7 v -696.2 l 114.4,-19.6 c 0.7,-20.8 0.4,-39.2 -1.2,-53.9 -15.4,-148.3 115,-333.9 491.1,-292.7 356,39.1 11.1,549.2 -1.3,857.4"
         style="fill:#000000;fill-opacity:1;fill-rule:nonzero;stroke:none"
         id="path24" />
      <path
         d="m 13564.5,8181.8 c 0,0 -0.1,0 -0.2,0 -12.4,0.1 -22.3,10.3 -22.2,22.7 2.3,220.2 -27.1,311.5 -58.1,408.1 -3.6,11 -7.1,22 -10.6,33.3 -3.7,11.8 2.9,24.4 14.7,28.1 11.7,3.7 24.4,-2.9 28.1,-14.7 3.5,-11.2 7,-22.1 10.5,-32.9 32.2,-100.2 62.6,-194.9 60.3,-422.4 -0.2,-12.3 -10.2,-22.2 -22.5,-22.2"
         style="fill:#ffffff;fill-opacity:1;fill-rule:nonzero;stroke:none"
         id="path26" />
      <path
         d="m 13968.5,7903.6 c -69.9,0 -156,13.8 -257.9,41.3 -12,3.2 -19.1,15.6 -15.8,27.5 3.2,12 15.6,19 27.5,15.8 250.5,-67.7 346.4,-33.1 381.2,-6.4 28,21.4 29.3,46.4 29.3,46.6 0,12.4 10,22.5 22.4,22.5 12.4,0 22.4,-10.1 22.4,-22.5 0,-1.8 -0.5,-46.8 -46.8,-82.3 -37.1,-28.3 -91.3,-42.5 -162.3,-42.5"
         style="fill:#ffffff;fill-opacity:1;fill-rule:nonzero;stroke:none"
         id="path28" />
      <path
         d="m 13865,8430.3 c -139.6,0 -321.3,94.9 -348.6,109.6 -5,2.7 -8.8,7.1 -10.6,12.5 -5.1,14.7 -122.7,361.6 -51.6,488.3 63.4,112.5 56.3,354.3 56.2,356.7 -0.4,12.4 9.3,22.7 21.7,23.2 0.2,0 0.5,0 0.7,0 12.1,0 22,-9.6 22.4,-21.7 0.4,-10.5 7.6,-256.9 -61.8,-380.2 -49.6,-88.2 18.3,-342.1 52,-443.4 99.7,-52.1 347.4,-154.7 416.4,-64 44.5,58.6 20.7,241 -4.4,434.1 -26.2,200.6 -55.9,428 -27.6,613.2 1.8,12.2 13,20.7 25.6,18.8 12.2,-1.9 20.6,-13.3 18.7,-25.6 -27.3,-178.9 2,-402.9 27.7,-600.5 28.8,-220.1 51.4,-393.9 -4.2,-467.1 -30,-39.4 -78.1,-53.9 -132.6,-53.9"
         style="fill:#000000;fill-opacity:1;fill-rule:nonzero;stroke:none"
         id="path30" />
      <path
         d="m 11235.1,9180.5 c 0,0 -73.4,-151.9 -134.2,-240.2 -99.8,-144.9 -75.6,-713.7 -75.6,-713.7 l 431.8,-13.4 c 0,0 -101.9,582.7 -9,809.6 93,226.9 -213,157.7 -213,157.7"
         style="fill:#ffffff;fill-opacity:1;fill-rule:nonzero;stroke:none"
         id="path32" />
      <path
         d="m 11457.1,8190.7 c -1.4,0 -2.8,0.2 -4.1,0.4 l -452.4,84.1 c -10.6,1.9 -18.3,11.2 -18.3,22 0,2.6 -0.5,269.9 43.9,482 16.9,81.1 49,147.3 74.7,200.5 19.6,40.5 36.6,75.5 37,98.5 0.2,12.3 10.7,22.2 22.8,22 12.3,-0.2 22.2,-10.4 22,-22.8 -0.5,-32.8 -18.5,-70.1 -41.4,-117.2 -24.6,-51 -55.4,-114.5 -71.2,-190.2 -36.7,-175.6 -42.1,-390.5 -42.8,-454.1 l 405,-75.3 c -11.5,142.5 -53.9,744.8 30.4,950.9 4.7,11.4 17.8,16.9 29.3,12.2 11.5,-4.7 17,-17.8 12.3,-29.2 -89.8,-219.4 -25.5,-951.9 -24.9,-959.3 0.6,-7 -2,-13.9 -7.2,-18.6 -4.2,-3.8 -9.6,-5.9 -15.1,-5.9"
         style="fill:#000000;fill-opacity:1;fill-rule:nonzero;stroke:none"
         id="path34" />
      <path
         d="m 11435.6,8605.1 c -74.6,-45 -158.2,-124.7 -193.6,-166.7 0,0 -194.5,123.3 -256.4,137.1 0,0 -94.6,-384.7 -94.6,-525.6 0,-141 30.9,-333.5 203,-388.6 172.1,-55 399.2,0 423.3,230.4 24.1,230.4 -24.1,395.4 -27.5,453.8 -2.2,36 -25,145.7 -11.3,219.1 6,31.6 -15.3,57.1 -42.9,40.5"
         style="fill:#000000;fill-opacity:1;fill-rule:nonzero;stroke:none"
         id="path36" />
      <path
         d="m 11192.7,7747.2 c -1.5,0 -2.9,0 -4.4,0 v 0 c -2.4,0 -58.3,0.5 -114.4,34.1 -52.1,31.3 -114.2,97.5 -114.2,235.9 0,12.4 10.1,22.4 22.5,22.4 12.4,0 22.4,-10 22.4,-22.4 0,-94.2 31.1,-160.6 92.3,-197.4 45.8,-27.4 91.3,-27.7 91.8,-27.7 178.4,-2.8 246.5,185.1 247.2,187 4.1,11.7 17,17.9 28.6,13.7 11.7,-4.1 17.9,-16.9 13.7,-28.6 -0.7,-2.2 -79,-217 -285.5,-217"
         style="fill:#ffffff;fill-opacity:1;fill-rule:nonzero;stroke:none"
         id="path38" />
      <path
         d="m 10011.5,19769.3 c 0,0 39.7,-73.7 0,-123.9 -39.74,-50.2 -155.3,-240.3 -299.35,-273.1 -144.05,-32.7 -231.86,-469.1 -306.86,-742.3 -75,-273.3 1161.31,343.3 1161.31,343.3 l 73.5,-1119.1 c 0,0 -1521.99,-458 -1866.1,141.4 -344.1,599.4 516.17,1441 516.17,1441 l 421.98,288.5 299.35,44.2"
         style="fill:#ffffff;fill-opacity:1;fill-rule:nonzero;stroke:none"
         id="path40" />
      <path
         d="m 9304.51,19419.2 c -38.23,-38.1 -836.28,-845.9 -511.05,-1412.4 312.09,-543.6 1655.34,-183.5 1823.04,-136 l -70.1,1067.4 c -225,-111 -1013.49,-487.4 -1144.3,-379.9 -14.8,12.1 -30.01,35.5 -18.45,77.6 11.55,42.1 23.39,88 35.71,135.8 71.56,277.4 152.66,591.8 287.81,622.5 114.39,26 215.12,166.3 263.54,233.7 9.32,13 17.1,23.8 23.16,31.4 21.13,26.7 11.53,64.9 3.91,85.3 l -277.24,-41 z m 265.2,-1756.3 c -344.58,0 -673.29,74.4 -815.16,321.5 -348.74,607.6 484.29,1433.3 519.93,1468.2 0.93,0.9 1.95,1.7 3.02,2.5 l 421.98,288.5 c 2.81,1.9 6.02,3.2 9.39,3.7 l 299.33,44.1 c 9.3,1.4 18.5,-3.2 23,-11.5 1.9,-3.5 46.2,-87.4 -2.1,-148.4 -5.8,-7.3 -13.1,-17.5 -22,-29.8 -55.54,-77.4 -159.02,-221.5 -289.98,-251.2 -108.49,-24.7 -192.77,-351.5 -254.3,-590.1 -12.39,-47.9 -24.29,-94.1 -35.9,-136.4 -6.29,-22.9 0.95,-28.8 3.68,-31.1 88.8,-73 737.8,206.9 1126,400.5 6.7,3.3 14.7,3.1 21.2,-0.7 6.5,-3.7 10.7,-10.5 11.2,-17.9 l 73.5,-1119.1 c 0.7,-10.4 -5.9,-19.9 -15.9,-22.9 -37.3,-11.3 -573.9,-169.9 -1076.89,-169.9"
         style="fill:#000000;fill-opacity:1;fill-rule:nonzero;stroke:none"
         id="path42" />
      <path
         d="m 10334.7,19965.2 -310.3,-245.3 -493.93,-347.4 c -48.34,-34 -109.76,-30.2 -140.48,8.6 l -5.99,7.5 c -30.72,38.8 -20.23,99.4 24,138.6 l 451.93,400.4 310.27,245.3 164.5,-207.7"
         style="fill:#ffffff;fill-opacity:1;fill-rule:nonzero;stroke:none"
         id="path44" />
      <path
         d="m 10166.5,20141.4 -292.65,-231.4 -450.97,-399.6 c -35.16,-31.2 -44.51,-78.5 -21.3,-107.9 l 6,-7.5 c 23.22,-29.4 71.55,-31.1 109.98,-4.1 l 493.94,347.4 291.6,230.6 z M 9460.15,19327 c -34.48,0 -66.77,13.6 -87.75,40.1 l -5.99,7.6 c -38,48 -26.26,122.3 26.72,169.3 l 451.92,400.4 311.15,246.1 c 9.7,7.7 23.8,6.1 31.5,-3.7 l 164.6,-207.6 c 3.7,-4.7 5.3,-10.7 4.7,-16.6 -0.7,-5.9 -3.7,-11.3 -8.4,-15 l -310.2,-245.3 -495.03,-348.1 c -25.91,-18.2 -55.28,-27.2 -83.22,-27.2"
         style="fill:#000000;fill-opacity:1;fill-rule:nonzero;stroke:none"
         id="path46" />
      <path
         d="m 10074.3,20195.4 260.3,-328.6 174.1,137.7 -260.3,328.6 -174.1,-137.7"
         style="fill:#ffffff;fill-opacity:1;fill-rule:nonzero;stroke:none"
         id="path48" />
      <path
         d="m 10105.8,20191.7 232.4,-293.4 138.9,109.9 -232.3,293.4 z m 228.8,-347.3 c -6.6,0 -13.2,2.9 -17.6,8.5 l -260.3,328.6 c -3.7,4.6 -5.4,10.6 -4.7,16.5 0.7,5.9 3.7,11.3 8.4,15 l 174.1,137.7 c 9.7,7.7 23.8,6 31.5,-3.7 l 260.3,-328.6 c 3.7,-4.6 5.3,-10.6 4.7,-16.5 -0.7,-5.9 -3.7,-11.3 -8.4,-15 l -174.1,-137.7 c -4.1,-3.2 -9.1,-4.8 -13.9,-4.8"
         style="fill:#000000;fill-opacity:1;fill-rule:nonzero;stroke:none"
         id="path50" />
      <path
         d="m 10920.2,20597.1 c 104.7,-132.2 82.3,-324 -49.9,-428.5 l -275.5,-217.8 c -68.2,-53.9 -167.3,-42.4 -221.3,25.8 l -183.3,231.4 c -54.1,68.2 -42.5,167.2 25.7,221.2 l 275.5,217.7 c 132.2,104.6 324.2,82.2 428.8,-49.8"
         style="fill:#000000;fill-opacity:1;fill-rule:nonzero;stroke:none"
         id="path52" />
      <path
         d="m 9660.74,19949 c 16.44,5.2 158.81,-14.7 258.08,-32.2 99.28,-17.4 33.29,-103.2 -68.28,-108.8 l 68.28,-38.7 c 0,0 -36.38,-106 -170.79,-83 v -51 c 0,0 -131.41,-63.2 -239.49,-49.4 -108.09,13.7 -100.54,-58.7 -100.54,-58.7 0,0 -47.25,326 252.74,421.8"
         style="fill:#ffffff;fill-opacity:1;fill-rule:nonzero;stroke:none"
         id="path54" />
      <path
         d="m 9660.74,19949 h 0.22 z m 5.85,-21.7 c -197.89,-63.7 -234.56,-232.7 -238.73,-328.6 21.15,10.7 49.1,13.8 83.51,9.4 81.37,-10.3 179.69,27.2 214.22,41.8 v 36.4 c 0,6.6 2.91,12.9 7.97,17.2 5.05,4.3 11.7,6 18.25,4.9 83.09,-14.3 122.07,27.3 137.45,51.8 l -49.79,28.3 c -8.65,4.9 -13.04,14.9 -10.77,24.6 2.28,9.7 10.67,16.7 20.61,17.3 57.08,3.1 95.22,34.2 96.12,49.3 0.27,4.6 -10.32,11.5 -30.5,15 -106.84,18.8 -228.86,34.8 -248.34,32.6 z m -258.61,-422.6 c -11,0 -20.56,8.1 -22.18,19.2 -0.5,3.5 -46.35,346 268.12,446.5 31.29,9.9 266.42,-31.1 268.79,-31.5 63.61,-11.2 68.41,-47 67.52,-61.9 -1.9,-31.9 -33.63,-62.1 -77.35,-78.6 l 17.02,-9.6 c 9.39,-5.4 13.64,-16.6 10.14,-26.8 -13.62,-39.7 -66.04,-107.4 -169.58,-100.9 v -25.7 c 0,-8.7 -4.94,-16.5 -12.71,-20.3 -5.6,-2.7 -138.62,-65.9 -252.05,-51.5 -31.85,4.1 -54.82,0.2 -66.35,-11 -9.77,-9.6 -9.04,-23 -9.03,-23.1 1.26,-12.2 -7.41,-23.1 -19.54,-24.6 -0.95,-0.1 -1.88,-0.2 -2.8,-0.2"
         style="fill:#000000;fill-opacity:1;fill-rule:nonzero;stroke:none"
         id="path56" />
      <path
         d="m 14687.9,18591 c -12.7,-106.5 -67.1,-455.5 -540.6,-714.7 -473.5,-259.3 -622,-370.3 -622,-403.3 0,-33.1 0,-33.1 0,-33.1 0,0 290.3,-879.3 224.5,-1322.2 0,0 -277.4,191.7 -1190.6,119 -913.2,-72.8 -1526.9,-79.4 -1779.2,231.4 0,0 365.7,860.8 238.7,1078.3 -127.1,217.5 -656.5,118.3 -656.5,118.3 0,0 -344.1,1184.1 -311,1240 33.1,55.8 714.6,507.8 1574.9,552.9 860.3,45.1 1589.9,-68.5 1989.4,-167.1 399.5,-98.6 1072.4,-699.5 1072.4,-699.5"
         style="fill:#ffffff;fill-opacity:1;fill-rule:nonzero;stroke:none"
         id="path58" />
      <path
         d="m 13547.5,17470.7 c 0,0 0,0 0,0 0,0 0,0 0,0 z m -596.4,-1195 c 480.1,0 704.6,-84.7 780.6,-122.3 46.4,442.2 -224.9,1271 -227.7,1279.5 -0.8,2.3 -1.1,4.6 -1.1,7 v 33.1 c 0,24.7 0,76 633.7,422.9 307.9,168.7 490.1,405.7 527.5,686.1 -80.3,70.5 -688.9,596.6 -1054,686.7 -212.1,52.3 -981.7,218.8 -1982.8,166.5 -841.3,-44.1 -1509.9,-479.4 -1555.8,-540.6 -10.8,-69.9 179.4,-765.4 306.6,-1204.4 101,16.3 539.5,73.7 659.9,-132.5 124.1,-212.4 -185.3,-973.7 -232,-1085.8 238.8,-278.5 779.6,-290.3 1751.4,-212.9 147,11.7 277.9,16.7 393.7,16.7 z m 798.7,-180.5 c -4.5,0 -8.9,1.4 -12.7,4 -2.7,1.8 -285.4,186.1 -1176.2,115.1 -853.4,-68 -1527.8,-93.5 -1798.3,239.6 -5.3,6.5 -6.5,15.3 -3.3,22.9 100.5,236.6 339.5,887.9 240,1058.3 -117.7,201.5 -627.8,108.5 -633,107.6 -11.3,-2.1 -22.5,4.7 -25.7,15.7 -0.8,3 -87,299.7 -168,599.5 -166.2,615.1 -149.7,643.1 -140.7,658.2 34,57.5 710,517.6 1593,563.9 1007.2,52.8 1782.4,-115 1995.9,-167.7 400.4,-98.8 1054.4,-679.9 1082,-704.6 5.5,-4.9 8.2,-12.1 7.4,-19.4 -35.7,-300.5 -226.6,-553.5 -552.1,-731.7 -537.7,-294.4 -603.5,-368.7 -610.4,-385.2 v -27.9 c 22.7,-69.1 288.7,-895.5 224.3,-1329.1 -1.1,-7.7 -6.1,-14.2 -13.2,-17.3 -2.9,-1.3 -5.9,-1.9 -9,-1.9"
         style="fill:#000000;fill-opacity:1;fill-rule:nonzero;stroke:none"
         id="path60" />
      <path
         d="m 12863.6,16107.7 c 0,0 195.6,326.6 370.5,360.4 174.9,33.8 476.5,-226.5 476.5,-226.5 0,0 681.6,328.9 576.4,828.1 -61.7,292.4 -240.4,523.6 -385.2,668.8 69.9,40.4 151.2,86.1 245.5,137.8 203.1,111.2 329,238.9 407.6,356.9 170.3,-222.3 394.6,-607.8 425.7,-1123.8 63,-1042.8 -1230.3,-1236.4 -1393.4,-1183.5 -163.1,52.9 -472.2,138.9 -523.1,86 -51,-52.9 -141,0 -141,0 l 59.6,52.9 c -59.6,-52.9 -119.1,42.9 -119.1,42.9"
         style="fill:#ffffff;fill-opacity:1;fill-rule:nonzero;stroke:none"
         id="path62" />
      <path
         d="m 12863.6,16107.7 h 0.2 z m 270.8,-57.6 c 120.7,0 326.7,-59.7 459.8,-102.8 97.2,-31.6 614.4,32.4 980.3,315.6 275.6,213.4 404.7,497.7 383.7,845.1 -29.3,486.4 -230.9,855.9 -402.5,1086.9 -94.5,-131.8 -228.1,-245.5 -397.6,-338.3 -80.4,-44 -154.3,-85.3 -220,-123.1 140,-145.1 310.2,-371.8 370.8,-659.2 107.6,-510.5 -560.1,-839.1 -588.6,-852.9 -8,-3.9 -17.6,-2.6 -24.4,3.3 -2.9,2.5 -295.1,252.7 -457.5,221.3 -144.5,-27.9 -310.5,-278.4 -347.9,-337.5 11.4,-14.3 30.9,-34.2 49.9,-36.9 6,-0.9 15.3,-0.7 27.4,9.9 9.2,8.3 23.4,7.5 31.7,-1.8 3.8,-4.3 5.6,-9.6 5.6,-14.9 0,-6.2 -2.5,-12.4 -7.5,-16.8 l -33.5,-29.7 c 25.3,-8.6 61.1,-14.4 83.8,9.1 15.5,16.1 46.3,22.7 86.5,22.7 z m 528.9,-154.2 c -37.3,0 -65.8,3.1 -83,8.7 -291.2,94.4 -475,117.7 -500.1,91.7 -62.5,-64.9 -164.2,-6.3 -168.5,-3.8 -6.1,3.7 -10.2,10 -10.9,17.2 -0.7,7.1 2.1,14.2 7.4,18.9 l 5,4.5 c -38.9,16.3 -65.4,57.3 -68.7,62.7 -4.4,7.1 -4.5,16.2 -0.2,23.4 8.2,13.7 202.9,335.6 385.6,370.9 165.3,31.8 425.1,-173.2 483.8,-221.7 92,48.2 643.8,357.8 551.3,796.7 -61.3,290.7 -240,518 -379.1,657.5 -5,5 -7.3,11.9 -6.4,18.8 0.9,6.9 5,13 11,16.5 72.2,41.7 155,88.2 246.1,138 174.1,95.4 308.5,213 399.7,349.7 4,6 10.7,9.8 17.9,10 7.8,0.5 14.1,-3.1 18.5,-8.8 179.1,-233.8 399.2,-620.7 430.3,-1136.1 21.9,-363.1 -113,-660.3 -401,-883.3 -321.9,-249.1 -746.8,-331.5 -938.7,-331.5"
         style="fill:#000000;fill-opacity:1;fill-rule:nonzero;stroke:none"
         id="path64" />
      <path
         d="m 12615.2,17657.8 c -4.8,0 -9.5,1.5 -13.6,4.6 -295.7,226.2 -384.1,475.2 -387.7,485.7 -4.1,11.7 2.1,24.5 13.8,28.5 11.7,4.1 24.5,-2.1 28.6,-13.8 0.8,-2.5 88.2,-247.3 372.5,-464.7 9.9,-7.5 11.8,-21.6 4.2,-31.4 -4.4,-5.8 -11,-8.9 -17.8,-8.9"
         style="fill:#000000;fill-opacity:1;fill-rule:nonzero;stroke:none"
         id="path66" />
      <path
         d="m 11568.2,17693.3 c -6.8,0 -13.6,3.1 -18,8.9 -224.2,297.2 -242.5,560.9 -243.1,571.9 -0.8,12.4 8.6,23 21,23.8 12.4,0.8 23,-8.7 23.7,-21 0.2,-2.6 18.7,-261.9 234.3,-547.6 7.4,-9.9 5.4,-24 -4.4,-31.5 -4.1,-3 -8.8,-4.5 -13.5,-4.5"
         style="fill:#000000;fill-opacity:1;fill-rule:nonzero;stroke:none"
         id="path68" />
      <path
         d="m 11463.6,19429.5 131.1,35.9 c 209,36.3 166.3,573.4 151.4,714.1 l -194.8,-50.4 c -39.3,24.1 -61.2,68.6 -57.2,114.5 l 30,331.3 -15.5,124.3 c 164.6,61.3 289.1,277.1 289.1,277.1 l 357.6,-72.4 c 177.8,-72.4 37.2,-147 -44.7,-320.7 0,0 -29.5,-149.8 111.2,-57.8 127.9,83.5 157.9,75 191.3,21.4 26.1,-41.8 6.1,-128.7 -18.3,-171.5 l -6.5,-11.3 c -24.5,-43.1 -66.6,-73.4 -115.2,-83.1 l -0.6,-0.1 c -21.5,-494.4 307.3,-802 638.1,-875.3 8.4,-1.9 16.8,-3.6 25.2,-5.2 l 6.3,-1.2 c -12.4,-11.7 -23.6,-24.9 -33.3,-39.6 0,0 -327.3,-685.6 -1074.9,-476.5 -250.7,70.2 -435.5,303.4 -370.3,546.5"
         style="fill:#ffffff;fill-opacity:1;fill-rule:nonzero;stroke:none"
         id="path70" />
      <path
         d="m 11482.2,19411.4 c -55.9,-239.2 135.7,-444.6 357.8,-506.8 95.5,-26.7 184.1,-38.3 265.9,-38.3 535.5,0 779.9,497.1 782.7,502.9 0.4,1 0.9,1.9 1.5,2.7 3,4.5 6.1,8.9 9.3,13.1 -329.4,76 -671.4,387.7 -649.3,896.8 0.4,10.3 7.9,19 18,21 42.9,8.6 79.4,34.9 100.7,72.3 l 6.5,11.3 c 24.1,42.3 37.8,118 18.7,148.5 -11.8,19.1 -20.4,27.4 -30.4,29.6 -21,4.7 -61.1,-13.2 -129.5,-57.9 -52.9,-34.6 -91.9,-42.4 -119.3,-23.9 -40.2,27.1 -27.8,97 -26.2,104.9 0.3,1.8 0.9,3.5 1.7,5.2 24,50.9 52.2,92.5 77.1,129.3 32.1,47.3 57.5,84.8 50,109.4 -5.2,17 -28.3,34.2 -68.6,50.8 l -340.1,68.9 c -30.1,-48.2 -136.4,-205.6 -275.7,-266.4 l 13.4,-107.1 c 0.2,-1.6 0.2,-3.3 0.1,-4.8 l -30.1,-331.3 c -3,-34.8 11.8,-67.8 39.1,-88.2 l 185,47.9 c 6.3,1.6 13.1,0.4 18.4,-3.3 5.4,-3.7 8.9,-9.6 9.6,-16.1 22.1,-209.4 49.7,-700.4 -170,-738.6 z m 624.7,-590.2 c -85.9,0 -178.8,12.2 -279,40.2 -246.9,69.1 -458.8,302.7 -386,574 2.1,7.7 8.1,13.7 15.8,15.8 l 131.1,35.8 c 146.9,25.7 165.9,367.9 137.6,664.3 l -169.5,-43.9 c -5.9,-1.5 -12.2,-0.6 -17.4,2.6 -46.6,28.6 -72.6,80.6 -67.8,135.6 l 29.9,328.9 -15.2,121.9 c -1.3,10.3 4.6,20.1 14.4,23.8 155.2,57.8 276.2,265.2 277.4,267.3 4.9,8.4 14.5,12.7 23.9,10.8 l 357.7,-72.4 c 1.3,-0.3 2.7,-0.7 4,-1.2 56.2,-22.9 86.9,-48.4 96.6,-80.2 13.6,-45.1 -17,-90.3 -55.8,-147.6 -23.6,-34.7 -50.2,-74 -72.5,-120.6 -3.2,-19.7 -2.4,-49.5 7.8,-56.4 2.7,-1.8 18.6,-9.1 69.7,24.3 83.5,54.6 127.8,72 163.7,64.1 28.5,-6.3 45.7,-28.6 58.8,-49.6 31.7,-50.8 10,-145.6 -17.8,-194.5 l -6.5,-11.3 c -24.9,-43.7 -65.7,-75.8 -113.5,-89.8 -12.9,-476.6 311.1,-767 621.2,-835.7 8.1,-1.8 16.3,-3.5 24.6,-5.1 l 6.2,-1.2 c 8.3,-1.6 15,-7.6 17.4,-15.7 2.3,-8.1 0,-16.9 -6.2,-22.7 -11,-10.3 -20.8,-21.9 -29.2,-34.4 -16.2,-32.4 -274.3,-527.1 -821.4,-527.1"
         style="fill:#000000;fill-opacity:1;fill-rule:nonzero;stroke:none"
         id="path72" />
      <path
         d="m 12043.1,19349.9 c -50,0 -81.6,21.3 -83.5,22.6 -10.2,7.1 -12.8,21.1 -5.7,31.3 7,10.1 20.9,12.6 31.1,5.7 2.1,-1.4 48.3,-31.1 116.9,-2.2 11.4,4.8 24.6,-0.5 29.4,-11.9 4.8,-11.5 -0.6,-24.6 -12,-29.4 -28.3,-11.9 -54,-16.1 -76.2,-16.1"
         style="fill:#000000;fill-opacity:1;fill-rule:nonzero;stroke:none"
         id="path74" />
      <path
         d="m 12041.5,20101.3 c 0,-120.1 97.5,-217.6 217.8,-217.6 120.2,0 217.8,97.5 217.8,217.6 0,120.2 -97.6,217.6 -217.8,217.6 -120.3,0 -217.8,-97.4 -217.8,-217.6"
         style="fill:#ffffff;fill-opacity:1;fill-rule:nonzero;stroke:none"
         id="path76" />
      <path
         d="m 12259.3,20296.5 c -107.8,0 -195.4,-87.6 -195.4,-195.2 0,-107.6 87.6,-195.1 195.4,-195.1 107.7,0 195.3,87.5 195.3,195.1 0,107.6 -87.6,195.2 -195.3,195.2 z m 0,-435.2 c -132.5,0 -240.3,107.7 -240.3,240 0,132.4 107.8,240.1 240.3,240.1 132.4,0 240.2,-107.7 240.2,-240.1 0,-132.3 -107.8,-240 -240.2,-240"
         style="fill:#000000;fill-opacity:1;fill-rule:nonzero;stroke:none"
         id="path78" />
      <path
         d="m 15550.6,10006.8 c -204.4,177.4 861.2,714.2 728,1426.8 -121.7,651.1 -1099.2,673.3 -1170,1276 -75.8,644.9 1006,939.2 898.7,1592 -82.6,503 -749.7,478.5 -891.7,1008.4 -170.5,636.7 741,864.5 900.9,1764.3 149.3,840.4 -560,1124.4 -192.8,1828 47.8,91.6 349.2,641.2 890.4,731.6 880.4,146.9 2230.1,-949.3 2243.8,-2074.5 11.6,-947.5 -932.7,-1206.8 -826.6,-2199.1 89.8,-841 791.9,-876.4 677.7,-1556.9 -135.1,-805.3 -1163.4,-1024.7 -1234.6,-1919.9 -37.3,-469 233.1,-556.6 81.1,-907.5 -321.1,-741.2 -1879.7,-1164.7 -2104.9,-969.2"
         style="fill:#ffffff;fill-opacity:1;fill-rule:nonzero;stroke:none"
         id="path80" />
      <path
         d="m 16876.4,19624.4 c -54.8,0 -107.8,-4.2 -158.6,-12.7 -519.7,-86.7 -819.4,-614.8 -874.2,-719.8 -191,-366 -84.7,-612.1 38.4,-897 106.6,-246.6 227.4,-526 156.6,-924.5 -78.5,-441.8 -333.2,-721.3 -557.9,-967.9 -239.2,-262.6 -428.2,-470 -343.4,-786.7 68.3,-254.9 264.8,-378.9 454.9,-498.9 193.7,-122.3 394.1,-248.7 437.3,-511.7 56.2,-342.3 -203.1,-589.2 -453.8,-827.9 -247.3,-235.5 -480.9,-457.9 -444.8,-765.1 33.8,-288.1 284.1,-439.3 549,-599.5 274.1,-165.7 557.6,-337 620.8,-675 81.5,-436.1 -267.8,-801.2 -522.7,-1067.7 -125.6,-131.3 -234.1,-244.7 -231.1,-310.8 0.7,-13.9 6.5,-25.1 18.4,-35.4 67.4,-58.6 290.9,-55.5 569.2,7.8 581,132.1 1298.3,486.8 1500.4,953.3 78.2,180.6 40.1,286.9 -8.2,421.4 -43.3,120.6 -92.3,257.3 -74.7,478.9 38.1,478.6 345.5,768.2 642.8,1048.3 272.1,256.3 529.2,498.5 592.1,873.6 56.7,338 -94.6,512.4 -269.7,714.3 -170.5,196.5 -363.7,419.2 -408.2,836.5 -56.2,525.5 180.7,853.3 409.8,1170.4 207.5,287.2 422.1,584.2 416.7,1030.8 -6.5,530.6 -322.4,1108.5 -845.1,1545.7 -394.1,329.7 -844,519.6 -1214,519.6 z M 15760.6,9937.1 c -106.1,0 -184.2,17.6 -224.7,52.8 -21.2,18.4 -32.6,41 -33.8,67.2 -4,85.3 99.8,193.8 243.4,343.9 248.3,259.5 588.3,615 511.1,1028.5 -59.5,318.2 -334.2,484.2 -599.9,644.8 -262.5,158.7 -534,322.8 -570.4,632.7 -38.7,329.4 214,570.1 458.5,802.8 253.4,241.3 492.8,469.3 440.4,788.1 -39.9,243.1 -223,358.7 -416.9,481 -197.4,124.6 -401.5,253.4 -474.3,525.3 -91.2,340.4 114.9,566.6 353.5,828.6 220.6,242 470.7,516.4 546.9,945.4 68.4,385.3 -44.4,646.4 -153.5,898.9 -122.4,283.2 -238,550.6 -37.1,935.6 56.5,108.2 365.9,653.1 906.6,743.3 413,68.9 939.6,-124.3 1408.8,-516.8 532.6,-445.5 854.5,-1036 861.2,-1579.6 5.6,-461.3 -213.4,-764.5 -425.2,-1057.6 -234.5,-324.5 -456,-631 -401.6,-1139.3 43.1,-403.3 231.4,-620.4 397.5,-811.9 175,-201.7 340.3,-392.2 280.1,-751.1 -65.5,-390 -340.1,-648.7 -605.6,-898.9 -291.1,-274.2 -592.1,-557.8 -628.8,-1019.1 -16.9,-212 30.4,-343.9 72.1,-460.2 49.6,-138.2 92.4,-257.6 7.2,-454.4 -208.3,-480.8 -940,-844.7 -1531.7,-979.3 -148.8,-33.8 -279.8,-50.7 -383.8,-50.7"
         style="fill:#000000;fill-opacity:1;fill-rule:nonzero;stroke:none"
         id="path82" />
      <path
         d="m 17044.5,11441.1 c -10.8,0 -20.2,7.7 -22.1,18.6 -22,129.8 -84.7,245.5 -151.1,368 -116.1,214.3 -236.2,436 -170.4,770.8 69.3,352.5 265.5,534.5 455.2,710.5 173.8,161.1 337.8,313.3 375.5,585.6 53.1,384.6 -197,607.8 -461.8,844.1 -260,232.1 -528.8,472 -505.9,878.7 18.4,326.8 211.5,536.5 416,758.4 226,245.4 459.8,499.2 523.4,948.2 45.7,323.4 -19.1,652.4 -192.7,977.9 -5.8,11 -1.6,24.5 9.3,30.4 11,5.8 24.5,1.7 30.4,-9.3 178.1,-334.1 244.5,-672.3 197.4,-1005.3 -65.5,-462.8 -314.8,-733.5 -534.8,-972.3 -198.9,-215.9 -386.7,-419.7 -404.2,-730.6 -21.7,-385 239,-617.7 491,-842.6 261.9,-233.7 532.7,-475.4 476.3,-883.7 -39.8,-288.3 -209.6,-445.7 -389.4,-612.4 -184.5,-171.1 -375.2,-348.1 -441.6,-686.2 -62.7,-319.1 53.4,-533.5 165.8,-740.8 68.2,-125.9 132.6,-244.7 155.9,-381.9 2,-12.2 -6.2,-23.8 -18.4,-25.8 -1.3,-0.2 -2.5,-0.3 -3.8,-0.3"
         style="fill:#000000;fill-opacity:1;fill-rule:nonzero;stroke:none"
         id="path84" />
      <path
         d="m 15224.3,7433.1 c -74.3,117.9 639.3,364.2 1145.7,1282.2 306.6,555.9 383.7,1079.8 451.6,1571.4 168.1,1216.1 -128.8,1426.4 142.6,2008.7 325.8,698.9 880.4,487.5 1378.5,1221 614.3,904.7 -17.7,1538 625.7,2360.3 351.6,449.4 1024.8,879.6 1684,744.2 399,-81.9 844.1,-381.5 902.3,-743.8 56.3,-349.6 -289.6,-497.3 -516.2,-948.2 -404.5,-804.9 257.7,-1210.5 37.6,-2010.1 -298.7,-1085.3 -1697.7,-990.3 -2119.5,-2289.2 -169.9,-523.1 42.9,-582 -103.2,-1080.2 C 18360.4,7868 15371.2,7200 15224.3,7433.1"
         style="fill:#ffffff;fill-opacity:1;fill-rule:nonzero;stroke:none"
         id="path86" />
      <path
         d="m 20402.4,16623.6 c -562.2,0 -1110.9,-370.4 -1416.3,-760.7 -320.6,-409.8 -319.8,-768.5 -319,-1148.3 0.8,-372.6 1.7,-757.9 -305.9,-1210.8 -245.3,-361.3 -509.2,-498.9 -742,-620.3 -252.4,-131.7 -470.5,-245.4 -634.6,-597.6 -140.3,-300.9 -126.3,-499.1 -105,-799.2 19.8,-278.1 44.3,-624.1 -35.7,-1203.1 -65.4,-472.6 -139.4,-1008.2 -454.3,-1579.1 -323.4,-586.5 -725.5,-896.5 -965.8,-1081.8 -105.6,-81.4 -196.8,-151.8 -180.5,-177.6 15.4,-24.5 118.3,-55.3 406.1,-15.1 405.9,56.5 1114.7,252.2 1776.2,617.7 524.8,289.9 1194.8,786.8 1406.3,1508 69.5,237 56.7,369 43.2,508.8 -14.2,146.4 -28.9,297.8 60.1,572 221,680.3 699.4,978 1162.1,1265.9 419.3,260.9 815.4,507.4 957.2,1022.3 98.9,359.6 15.5,641.2 -65.2,913.6 -95.5,322.5 -194.3,656 29.2,1100.7 90.3,179.8 198.6,310.9 294,426.6 146.6,177.7 252.6,306 220.1,508 -56.6,351.9 -494.3,645.2 -884.7,725.4 -81.6,16.7 -163.7,24.6 -245.5,24.6 z M 15409.9,7365.5 c -97.5,0 -178.4,14.1 -204.6,55.6 -38,60.4 43.4,123.2 191.1,237.1 237.5,183.2 635,489.7 953.9,1068 310.9,563.6 384.3,1094.8 449.1,1563.5 79.4,574.4 55.1,917.8 35.5,1193.8 -21.8,307.1 -36.2,509.9 109,821.4 170.6,365.9 405.7,488.6 654.6,618.4 239.2,124.8 486.6,253.8 725.6,605.7 299.7,441.5 298.9,819.7 298.1,1185.5 -0.8,387.8 -1.6,754 328.6,1176 358,457.6 1044.6,888.3 1706.2,752.4 405.3,-83.2 860.2,-391.1 919.9,-762.2 35.7,-222 -81.4,-363.9 -229.8,-543.6 -93.9,-113.9 -200.4,-243 -288.5,-418.2 -215.5,-428.8 -123.6,-739.2 -26.3,-1067.9 82.5,-278.4 167.8,-566.2 65.4,-938.2 -146.4,-531.9 -549.7,-782.8 -976.7,-1048.5 -455.8,-283.7 -927.2,-577 -1143.1,-1241.6 -86.1,-265.4 -72.6,-405.5 -58.2,-553.9 13.4,-137.8 27.2,-280.3 -44.7,-525.8 -215.8,-735.7 -895.5,-1240.6 -1427.7,-1534.6 -666.9,-368.4 -1382,-565.8 -1791.7,-622.9 -79.6,-11.1 -167.9,-20 -245.7,-20"
         style="fill:#000000;fill-opacity:1;fill-rule:nonzero;stroke:none"
         id="path88" />
      <path
         d="m 15745.4,7528.9 c -8.2,0 -16,4.5 -20,12.2 -5.6,11 -1.3,24.6 9.8,30.2 971.4,496.5 1578.2,1108.7 1803.5,1819.6 132.3,417.7 104.2,756.6 76.9,1084.3 -32,385.5 -62.3,749.7 203.1,1159.2 217.6,335.6 479.8,470.7 733.4,601.4 274,141.2 532.8,274.6 698.9,655.7 96.5,221.2 95.5,391.6 94.4,588.9 -1.2,218 -2.6,465 135.7,829.4 148.9,392.1 410.2,743.9 776.7,1045.7 9.6,7.9 23.7,6.5 31.6,-3.1 7.8,-9.6 6.4,-23.7 -3.1,-31.6 -360.4,-296.7 -617.2,-642.2 -763.2,-1026.9 -135.4,-356.6 -134,-599.2 -132.8,-813.3 1.1,-193.9 2.1,-377.1 -98.1,-607.1 -172.6,-395.7 -438.3,-532.6 -719.5,-677.6 -248.4,-128 -505.2,-260.3 -716.3,-586 -257.1,-396.5 -228.8,-736.9 -196,-1131 26.3,-316.6 56.1,-675.4 -79,-1101.6 -229,-722.7 -843.3,-1343.8 -1825.8,-1846 -3.3,-1.6 -6.8,-2.4 -10.2,-2.4"
         style="fill:#000000;fill-opacity:1;fill-rule:nonzero;stroke:none"
         id="path90" />
      <path
         d="M 6922.14,11886.9 V 11280 c 0,-869.8 684.79,-1574.9 1529.52,-1574.9 844.73,0 1529.52,-705.2 1529.52,-1575 0,-77.5 -62.6,-140.4 -139.82,-140.4 H 5792.62 c -1266.37,0 -2292.95,1057.1 -2292.95,2361.1 v 1615.3 c 0,518.6 408.31,939.1 911.99,939.1 H 5933.3 c 546.12,0 988.84,-455.9 988.84,-1018.3"
         style="fill:#ffffff;fill-opacity:1;fill-rule:nonzero;stroke:none"
         id="path92" />
      <path
         d="m 4411.66,12882.7 c -490.5,0 -889.55,-411.2 -889.55,-916.6 v -1615.3 c 0,-1289.5 1018.54,-2338.6 2270.5,-2338.6 h 4048.75 c 64.73,0 117.38,52.9 117.38,117.9 0,856.1 -676.07,1552.5 -1507.08,1552.5 -855.75,0 -1551.95,716.6 -1551.95,1597.4 v 606.9 c 0,549.1 -433.52,995.8 -966.4,995.8 z M 9841.36,7967.3 H 5792.61 c -1276.7,0 -2315.37,1069.3 -2315.37,2383.5 v 1615.3 c 0,530.2 419.18,961.5 934.42,961.5 h 1521.65 c 557.61,0 1011.27,-466.8 1011.27,-1040.7 V 11280 c 0,-856.1 676.07,-1552.5 1507.08,-1552.5 855.75,0 1551.94,-716.6 1551.94,-1597.4 0,-89.8 -72.77,-162.8 -162.24,-162.8"
         style="fill:#000000;fill-opacity:1;fill-rule:nonzero;stroke:none"
         id="path94" />
      <path
         d="m 6928.13,3510.6 h 426.13 V 8125.7 H 6928.13 V 3510.6"
         style="fill:#ffffff;fill-opacity:1;fill-rule:nonzero;stroke:none"
         id="path96" />
      <path
         d="m 6950.58,3533 h 381.24 v 4570.3 h -381.24 z m 403.68,-44.8 h -426.12 c -12.39,0 -22.44,10 -22.44,22.4 v 4615.1 c 0,12.4 10.05,22.4 22.44,22.4 h 426.12 c 12.39,0 22.43,-10 22.43,-22.4 V 3510.6 c 0,-12.4 -10.04,-22.4 -22.43,-22.4"
         style="fill:#000000;fill-opacity:1;fill-rule:nonzero;stroke:none"
         id="path98" />
      <path
         d="M 9138.4,3579 7252.55,3745.1 H 7079.62 L 5154.35,3579 V 3447.3 H 9138.4 V 3579"
         style="fill:#ffffff;fill-opacity:1;fill-rule:nonzero;stroke:none"
         id="path100" />
      <path
         d="m 5176.79,3469.7 h 3939.17 v 88.7 l -1865.39,164.3 -170.95,-0.1 -1902.83,-164.2 z M 9138.4,3424.8 H 5154.35 c -12.39,0 -22.44,10.1 -22.44,22.5 V 3579 c 0,11.7 8.91,21.4 20.51,22.4 l 1925.28,166 174.84,0.1 1887.83,-166.1 c 11.58,-1.1 20.46,-10.8 20.46,-22.4 v -131.7 c 0,-12.4 -10.04,-22.5 -22.43,-22.5"
         style="fill:#000000;fill-opacity:1;fill-rule:nonzero;stroke:none"
         id="path102" />
      <path
         d="m 6253.63,7908.4 -577.65,-387.6 292.63,-346.7 665.22,325.7 -380.2,408.6"
         style="fill:#ffffff;fill-opacity:1;fill-rule:nonzero;stroke:none"
         id="path104" />
      <path
         d="m 5709.28,7516.1 265.18,-314.2 622.34,304.7 -346.56,372.5 z m 259.34,-364.5 c -6.45,0 -12.78,2.8 -17.15,8 l -292.64,346.7 c -4.12,4.9 -5.95,11.3 -5.07,17.6 0.89,6.3 4.41,11.9 9.72,15.5 l 577.64,387.6 c 9.15,6.2 21.42,4.7 28.93,-3.3 l 380.2,-408.6 c 4.84,-5.2 6.93,-12.4 5.64,-19.4 -1.29,-7 -5.82,-12.9 -12.19,-16.1 l -665.21,-325.7 c -3.16,-1.5 -6.53,-2.3 -9.87,-2.3"
         style="fill:#000000;fill-opacity:1;fill-rule:nonzero;stroke:none"
         id="path106" />
      <path
         d="m 5775.25,7695.5 c -87.06,-53.5 -246.55,-155.7 -377.59,-261.8 -82.23,-66.6 -100.42,-185 -44.07,-274.7 159.36,-253.6 555.25,-800.2 959.81,-1209.9 27.7,-28.1 93.85,-63.5 181.59,-15.8 300.87,163.3 -20.49,674.9 -236.27,1332 l -154.86,17.3 c -82.3,9.3 -151.08,67.1 -174.54,146.8 l -68.58,233.1 c -10.76,36.5 -53.1,53 -85.49,33"
         style="fill:#ffffff;fill-opacity:1;fill-rule:nonzero;stroke:none"
         id="path108" />
      <path
         d="m 5787,7676.4 c -84,-51.7 -244.43,-154.2 -375.23,-260.2 -73.02,-59.1 -89.87,-164.6 -39.17,-245.3 164.71,-262.1 555.45,-799.6 956.77,-1206.1 10.32,-10.4 66.21,-60 154.91,-11.8 208.18,113 88.97,418.5 -76.02,841.3 -53.17,136.3 -113.24,290.2 -166.34,450.3 l -140.56,15.8 c -91.52,10.2 -167.5,74.1 -193.57,162.7 l -68.58,233 c -3.16,10.8 -10.94,19.2 -21.32,23.2 -10.27,3.9 -21.5,2.9 -30.89,-2.9 z m 623.37,-1788.8 c -48.54,0 -88.3,20.8 -112.93,45.7 -403.86,409.1 -797.07,950 -962.84,1213.8 -62.76,99.9 -41.73,230.5 48.93,304 132.75,107.5 295.03,211.3 379.95,263.6 0.01,0 0.01,0 0.01,0 21.37,13.1 47.04,15.5 70.48,6.5 23.55,-9 41.15,-28.1 48.29,-52.4 l 68.58,-233.1 c 20.96,-71.2 82,-122.5 155.52,-130.8 l 154.85,-17.3 c 8.73,-0.9 16.09,-6.9 18.83,-15.3 53.81,-163.9 115.56,-322.1 170.03,-461.7 166.82,-427.5 298.58,-765.2 55.62,-897.1 -34,-18.4 -66.23,-25.9 -95.32,-25.9"
         style="fill:#000000;fill-opacity:1;fill-rule:nonzero;stroke:none"
         id="path110" />
      <path
         d="m 5417.44,7449.5 c 0,0 -13.38,-10.7 -19.78,-15.8 -82.23,-66.6 -100.42,-185 -44.07,-274.7 159.36,-253.6 555.25,-800.2 959.81,-1209.9 27.7,-28.1 93.85,-63.5 181.59,-15.8 26.89,14.6 66.27,51.9 66.27,51.9 l -27.4,30.2 c -390.35,429.4 -748.84,886.9 -1072.58,1368.8 l -43.84,65.3"
         style="fill:#ffffff;fill-opacity:1;fill-rule:nonzero;stroke:none"
         id="path112" />
      <path
         d="m 5412.41,7416.7 c -0.22,-0.1 -0.43,-0.3 -0.64,-0.5 -73.02,-59.1 -89.87,-164.6 -39.17,-245.3 164.71,-262.1 555.45,-799.6 956.77,-1206.1 10.32,-10.4 66.21,-60 154.91,-11.8 13.2,7.1 31.42,21.9 45.23,33.8 l -12.25,13.5 c -389.81,428.8 -751.36,890.2 -1074.6,1371.4 z m 997.96,-1529.1 c -48.54,0 -88.3,20.8 -112.93,45.7 -403.86,409.1 -797.07,950 -962.84,1213.8 -62.76,99.9 -41.73,230.5 48.93,304 6.46,5.2 19.94,16 19.94,16 4.9,3.8 11.18,5.5 17.41,4.6 6.19,-1 11.69,-4.5 15.18,-9.7 l 43.85,-65.3 c 322.02,-479.4 682.21,-939.1 1070.54,-1366.2 l 27.41,-30.2 c 8.21,-9 7.7,-22.9 -1.16,-31.3 -1.7,-1.6 -41.86,-39.6 -71.01,-55.5 -34,-18.4 -66.23,-25.9 -95.32,-25.9"
         style="fill:#000000;fill-opacity:1;fill-rule:nonzero;stroke:none"
         id="path114" />
      <path
         d="m 6363.74,6865.7 c -0.59,0 -1.19,0 -1.79,0.1 l -293.69,23.2 c -12.36,1 -21.59,11.8 -20.61,24.1 0.97,12.4 11.77,21.5 24.13,20.6 l 293.7,-23.2 c 12.36,-1 21.59,-11.8 20.61,-24.1 -0.93,-11.8 -10.76,-20.7 -22.35,-20.7"
         style="fill:#000000;fill-opacity:1;fill-rule:nonzero;stroke:none"
         id="path116" />
      <path
         d="m 6176.11,6662 c -12.36,0 -22.4,10 -22.43,22.4 -0.04,12.4 9.98,22.5 22.37,22.5 l 286.79,0.8 c 0.03,0 0.05,0 0.07,0 12.37,0 22.4,-10 22.44,-22.4 0.03,-12.4 -9.98,-22.5 -22.38,-22.5 l -286.79,-0.8 c -0.02,0 -0.05,0 -0.07,0"
         style="fill:#000000;fill-opacity:1;fill-rule:nonzero;stroke:none"
         id="path118" />
      <path
         d="m 10376.3,10456.4 c 237,-0.9 1041.4,-134.4 1064.9,-870.5 8,-250.8 209,-713.6 -1295.4,-1007.2 C 8352.11,8228.6 7018.13,7547.5 6717.5,7385.5 c -43.82,-23.7 -95.02,-28.9 -142.59,-14.2 -150.52,46.2 -467.94,174.9 -507.82,447.6 -8.94,61.1 18.31,122 68.18,158.2 l 370.22,269.1 -351.12,187.8 c -400.78,214.4 -717.68,567.2 -861.56,999.5 -128.69,386.7 -192.48,1048.5 -192.48,1048.5 l 5275.97,-25.6"
         style="fill:#000000;fill-opacity:1;fill-rule:nonzero;stroke:none"
         id="path120" />
      <path
         d="M 16993.8,3419.4 15472.9,8686.8 13952,3419.4 h -364.6 l 1671.1,5943.8 428.7,0.6 1671.2,-5944.4 h -364.6"
         style="fill:#ffffff;fill-opacity:1;fill-rule:nonzero;stroke:none"
         id="path122" />
      <path
         d="m 17010.7,3441.8 h 318.1 l -1658.6,5899.5 -394.7,-0.6 -1658.4,-5898.9 h 318 l 1516.3,5251.3 c 2.7,9.6 11.5,16.2 21.5,16.2 10,0 18.8,-6.6 21.6,-16.2 z m 347.7,-44.8 h -364.6 c -9.9,0 -18.7,6.6 -21.5,16.2 L 15472.9,8606 13973.6,3413.2 c -2.8,-9.6 -11.6,-16.2 -21.6,-16.2 h -364.6 c -7,0 -13.6,3.2 -17.9,8.8 -4.2,5.6 -5.6,12.9 -3.7,19.7 l 1671.1,5943.7 c 2.7,9.7 11.5,16.4 21.6,16.4 l 428.6,0.6 c 10.1,0 19,-6.7 21.7,-16.4 L 17380,3425.5 c 1.9,-6.8 0.5,-14.1 -3.7,-19.7 -4.2,-5.6 -10.9,-8.8 -17.9,-8.8"
         style="fill:#000000;fill-opacity:1;fill-rule:nonzero;stroke:none"
         id="path124" />
      <path
         d="m 10644.9,4751.1 c 57.4,-215.9 71.9,-441 42.7,-662.5 l 863.4,144.1 c -213.5,80.2 -377.1,256.4 -441.6,475.7 l -49.3,167.5 -415.2,-124.8"
         style="fill:#ffffff;fill-opacity:1;fill-rule:nonzero;stroke:none"
         id="path126" />
      <path
         d="m 10672,4735.8 c 51.5,-203.4 65.4,-411.8 41.5,-620.1 l 759.3,126.7 c -184.7,92.3 -326.1,259.6 -385,459.7 l -42.8,145.8 z m 15.6,-669.6 c -5.8,0 -11.4,2.2 -15.6,6.3 -5.2,4.9 -7.6,12 -6.7,19.1 29,219.6 14.9,439.6 -42.1,653.7 -3.1,11.7 3.6,23.8 15.2,27.3 l 415.2,124.8 c 5.8,1.7 11.9,1.1 17.2,-1.8 5.2,-2.8 9.2,-7.6 10.8,-13.4 l 49.3,-167.4 c 62.2,-211.4 222.2,-383.8 428,-461.1 9.5,-3.6 15.4,-13.1 14.4,-23.2 -0.9,-10.1 -8.6,-18.3 -18.6,-20 l -863.5,-144 c -1.2,-0.2 -2.4,-0.3 -3.6,-0.3"
         style="fill:#000000;fill-opacity:1;fill-rule:nonzero;stroke:none"
         id="path128" />
      <path
         d="m 10655.9,4365.9 c -27.9,-107.6 -85.1,-410.5 -107.9,-592.5 -14.2,-114.1 60.3,-220.4 171.6,-247.9 314.8,-77.7 1063,-58.7 1686.5,-73.2 42.7,-1 120.9,21.4 153.8,124.9 112.6,354.9 -560.2,447.6 -1221.7,798 0,0 -38.2,-32.2 -94.9,-63.1 -95.1,-51.6 -251.3,-47 -345.2,6.6 l -150.6,85.9 c -35.9,20.5 -81.3,1.4 -91.6,-38.7"
         style="fill:#ffffff;fill-opacity:1;fill-rule:nonzero;stroke:none"
         id="path130" />
      <path
         d="m 10655.9,4365.9 h 0.2 z m 60.5,24.6 c -5.2,0 -10.6,-1.1 -15.6,-3.2 -11.6,-4.9 -20.1,-14.8 -23.2,-27 -28.6,-110.4 -84.8,-410.2 -107.3,-589.7 -12.8,-102.3 53.7,-198.3 154.7,-223.3 231.6,-57.2 695.7,-61.4 1187,-65.8 164.6,-1.5 334.7,-3 494.6,-6.8 16,-0.3 98.2,3.1 131.9,109.2 71.3,224.9 -215.5,341.5 -612.5,502.8 -179.7,73.1 -382.9,155.7 -585.3,261.8 -16,-12.2 -46.8,-34.4 -86.7,-56.1 -100.4,-54.5 -265,-51.4 -367.1,6.8 l -150.6,85.9 c -6.2,3.6 -13,5.4 -19.9,5.4 z M 12409,3429.8 c -1.2,0 -2.3,0.1 -3.4,0.1 -159.6,3.7 -329.6,5.2 -494,6.7 -494.1,4.5 -960.7,8.7 -1197.4,67.1 -123,30.4 -204.1,147.6 -188.4,272.5 22.7,181 79.5,483.7 108.3,595.3 6.7,25.9 24.7,46.7 49.2,57.1 24.6,10.4 52,8.8 75.3,-4.5 l 150.6,-85.9 c 88.6,-50.5 236.6,-53.4 323.3,-6.3 53.9,29.2 90.9,60.1 91.2,60.5 7,5.9 16.9,6.9 25,2.6 204.7,-108.4 411.6,-192.5 594.3,-266.7 419.2,-170.4 722.2,-293.6 638.3,-557.9 -33,-104 -112.6,-140.6 -172.3,-140.6"
         style="fill:#000000;fill-opacity:1;fill-rule:nonzero;stroke:none"
         id="path132" />
      <path
         d="m 10530.9,3690.9 c -0.6,-3.2 -1,-5.4 -1.1,-6.4 -14.3,-114.2 95.9,-181.9 200.8,-228.3 317.5,-140.3 1604.6,-25 1604.6,-25 0,0 172.5,-1.8 218.4,102 6.7,15.2 9.9,37.9 11.4,56.8 1.6,20.3 -0.3,40.7 -5.2,60.5 l -11.4,46.5 c -175.2,-69.9 -963.6,-123 -1535.8,-52 -240,29.8 -379,133.7 -459.1,173.3 0,0 -11.1,-62.2 -22.6,-127.4"
         style="fill:#ffffff;fill-opacity:1;fill-rule:nonzero;stroke:none"
         id="path134" />
      <path
         d="m 10530.9,3690.9 h 0.2 z m 39.3,93.2 c -4.4,-24.3 -10.7,-60.2 -17.2,-97.1 v 0 c -0.5,-2.6 -0.8,-4.3 -0.9,-5.2 -10,-80.1 47.8,-143.3 187.6,-205 308.5,-136.4 1580.6,-24.4 1593.5,-23.3 3.8,0.1 160.6,-0.2 199.8,88.8 4.5,10 7.9,27.6 9.6,49.5 1.4,17.3 -0.1,35.2 -4.5,53.3 l -5.6,22.6 c -216.2,-66.2 -971.9,-113.4 -1522.7,-44.9 -198.8,24.7 -328.9,98.5 -415,147.4 -8.7,5 -16.9,9.6 -24.6,13.9 z m 818.2,-420.2 c -279.1,0 -542.8,17 -666.9,71.8 -99.8,44.1 -230.6,118.2 -213.9,251.6 0.1,1.1 0.5,3.7 1.2,7.5 11.5,65.3 22.6,127.5 22.6,127.5 1.2,6.9 5.7,12.9 12,16.1 6.3,3.2 13.7,3.2 20,0.1 15.8,-7.9 33.3,-17.8 53.5,-29.3 83,-47.1 208.5,-118.3 398.5,-141.9 567.7,-70.5 1351.8,-18.4 1524.6,50.5 6.1,2.4 12.9,2.1 18.6,-0.9 5.8,-2.9 10,-8.3 11.5,-14.6 l 11.5,-46.5 c 5.6,-22.8 7.6,-45.5 5.8,-67.6 -2.2,-27.6 -6.7,-49.1 -13.3,-64 -51.2,-116 -230.9,-115.6 -239.2,-115.5 -30.9,-2.8 -507.6,-44.8 -946.5,-44.8"
         style="fill:#000000;fill-opacity:1;fill-rule:nonzero;stroke:none"
         id="path136" />
      <path
         d="m 11410,4060.6 c -6.6,0 -13.2,2.9 -17.6,8.5 -7.7,9.7 -6,23.8 3.7,31.5 l 186,147 c 9.7,7.7 23.8,6 31.5,-3.7 7.7,-9.7 6,-23.8 -3.7,-31.5 l -186,-147 c -4.1,-3.2 -9,-4.8 -13.9,-4.8"
         style="fill:#000000;fill-opacity:1;fill-rule:nonzero;stroke:none"
         id="path138" />
      <path
         d="m 11663.1,3963.4 c -6.7,0 -13.3,3 -17.7,8.7 -7.6,9.8 -5.9,23.9 3.9,31.5 l 162.8,126.7 c 9.8,7.7 23.9,5.9 31.5,-3.9 7.6,-9.8 5.8,-23.9 -3.9,-31.5 l -162.8,-126.7 c -4.1,-3.2 -9,-4.8 -13.8,-4.8"
         style="fill:#000000;fill-opacity:1;fill-rule:nonzero;stroke:none"
         id="path140" />
      <path
         d="m 8827.96,9306.9 c 0,0 657.37,-145.1 1146.61,-483.3 423.93,-293 870.93,-853.6 1278.03,-3790.9 27.4,-197.2 -141.1,-338.5 -256.4,-365.3 -163.3,-38.1 -297.5,-23.2 -435.5,66.3 -235.3,152.6 -1123.38,2411.9 -1652.74,2891.3 -529.35,479.4 -2765.43,581.9 -3196.75,1192.1 -431.33,610.2 627.38,610.2 627.38,610.2 l 2489.37,-120.4"
         style="fill:#000000;fill-opacity:1;fill-rule:nonzero;stroke:none"
         id="path142" />
      <path
         d="m 7610.47,7753 c -8.3,0 -16.28,4.6 -20.18,12.5 -5.44,11.2 -0.83,24.6 10.3,30.1 43.19,21.1 84.75,41.5 125.04,61.4 531.32,261.5 852.03,419.4 1823.86,589.4 12.34,2.1 23.84,-6 25.96,-18.2 2.14,-12.2 -6.03,-23.9 -18.23,-26 -965.51,-168.9 -1284.04,-325.7 -1811.77,-585.5 -40.33,-19.8 -81.91,-40.3 -125.14,-61.5 -3.18,-1.5 -6.53,-2.2 -9.84,-2.2"
         style="fill:#ffffff;fill-opacity:1;fill-rule:nonzero;stroke:none"
         id="path144" />
      <path
         d="M 13798.1,9889.4 H 9124.68 c -88.88,0 -160.94,72.1 -160.94,161 v 108 H 13959 v -108 c 0,-88.9 -72,-161 -160.9,-161"
         style="fill:#ffffff;fill-opacity:1;fill-rule:nonzero;stroke:none"
         id="path146" />
      <path
         d="m 8986.18,10136 v -85.7 c 0,-76.3 62.13,-138.5 138.5,-138.5 h 4673.42 c 76.3,0 138.5,62.2 138.5,138.5 v 85.7 z M 13798.1,9867 H 9124.68 c -101.11,0 -183.37,82.2 -183.37,183.3 v 108.1 c 0,12.4 10.04,22.4 22.44,22.4 H 13959 c 12.4,0 22.5,-10 22.5,-22.4 v -108.1 c 0,-101.1 -82.3,-183.3 -183.4,-183.3"
         style="fill:#000000;fill-opacity:1;fill-rule:nonzero;stroke:none"
         id="path148" />
      <path
         d="m 13959.1,10153.6 h -2858.3 l 845.6,2493.4 c 54.4,83.9 149,134.8 250.8,134.8 h 2416.3 c 109.6,0 180.2,-106.7 144.4,-200.9 -14.2,-37.4 -798.8,-2427.3 -798.8,-2427.3"
         style="fill:#ffffff;fill-opacity:1;fill-rule:nonzero;stroke:none"
         id="path150" />
      <path
         d="m 11132.1,10176 h 2810.7 c 73.4,223.3 780.3,2376.6 794.1,2412.9 14.3,37.5 8.8,80.3 -14.6,114.2 -24.7,35.8 -64.3,56.3 -108.8,56.3 h -2416.3 c -93.8,0 -179.7,-45.7 -230.4,-122.3 z m 2827,-44.9 h -2858.3 c -7.2,0 -14,3.5 -18.3,9.4 -4.2,5.9 -5.3,13.4 -3,20.3 l 845.7,2493.5 c 0.6,1.7 1.4,3.4 2.4,4.9 58.8,90.8 159.6,145 269.6,145 h 2416.3 c 59.4,0 112.6,-27.5 145.7,-75.6 31.8,-46.1 39.2,-104.3 19.7,-155.6 -14.2,-37.5 -790.6,-2402.6 -798.5,-2426.4 -3,-9.3 -11.6,-15.5 -21.3,-15.5"
         style="fill:#000000;fill-opacity:1;fill-rule:nonzero;stroke:none"
         id="path152" />
      <path
         d="m 13777.5,10386.4 h -2351.9 l 724.7,2157.7 2345.1,3.2 -717.9,-2160.9"
         style="fill:#ffffff;fill-opacity:1;fill-rule:nonzero;stroke:none"
         id="path154" />
      <path
         d="m 11456.8,10408.8 h 2304.5 l 703,2116 -2297.8,-3.1 z m 2320.7,-44.9 h -2351.9 c -7.3,0 -14,3.5 -18.3,9.4 -4.2,5.8 -5.3,13.4 -3,20.2 l 724.8,2157.7 c 3,9.1 11.6,15.3 21.2,15.3 l 2345.1,3.2 c 7.2,0 14,-3.5 18.2,-9.3 4.3,-5.8 5.4,-13.4 3.1,-20.2 l -717.9,-2160.9 c -3,-9.2 -11.6,-15.4 -21.3,-15.4"
         style="fill:#000000;fill-opacity:1;fill-rule:nonzero;stroke:none"
         id="path156" />
      <path
         d="m 12794.9,10853.8 c -139.5,0 -274,45.6 -385.8,132.1 -133.8,103.5 -219,253.1 -240,421.2 -43.3,347.3 204.2,666.7 551.8,712 245.1,32 488.2,-82.6 618.7,-291.9 6.6,-10.5 3.4,-24.3 -7.1,-30.9 -10.6,-6.5 -24.4,-3.3 -30.9,7.2 -121.3,194.4 -347,300.7 -574.9,271.1 -323.2,-42.1 -553.3,-339.1 -513,-662 19.5,-156.1 98.6,-295.1 222.8,-391.2 124.6,-96.3 279.4,-138.2 436.1,-117.7 101.7,13.3 198.6,52.8 280.2,114.2 9.9,7.5 24,5.5 31.4,-4.4 7.5,-9.9 5.5,-23.9 -4.4,-31.4 -87.8,-66.1 -192,-108.6 -301.4,-122.9 -27.9,-3.6 -55.8,-5.4 -83.5,-5.4"
         style="fill:#000000;fill-opacity:1;fill-rule:nonzero;stroke:none"
         id="path158" />
      <path
         d="m 12590.4,11324.9 29.6,384.2 c 1.5,19.6 23.1,30.8 40,20.8 l 369.9,-219.1 c 18.8,-11.2 16.8,-39 -3.4,-47.4 l -399.5,-165.1 c -18.3,-7.5 -38.1,6.8 -36.6,26.6"
         style="fill:#000000;fill-opacity:1;fill-rule:nonzero;stroke:none"
         id="path160" />
      <path
         d="m 4163.71,13161.4 c 111.22,245.6 407.29,404.3 637.43,494.5 159.07,62.3 327.75,96.2 498.41,102.9 l 603.42,23.7 c 228,16.5 496.43,5.9 789.59,-46.3 389.41,-69.4 738.83,-282.6 987.24,-591.3 112.32,-139.5 211.37,-260.4 219.42,-262.9 326.31,-459.4 370.43,-540.3 606.26,-711.8 393.8,-286.3 1083.03,-52.8 1083.03,-52.8 229.64,34.4 312.94,-137.5 354.81,-233.1 50.26,-114.7 1.58,-254.8 -42.74,-344.7 -28.36,-57.5 -76.78,-102.4 -136.05,-126.6 -295.52,-120.8 -1300.62,-497.3 -1761.53,-235.4 -384.14,218.4 -642.2,674.1 -848,898 -20.8,22.6 -58,5.9 -55.35,-24.7 43.58,-503 456.8,-1100.1 582.6,-1271.5 22.51,-30.7 56.62,-50.5 94.35,-54.8 l 909.56,-103.9 c 12.43,-0.9 26.1,-6.1 39.61,-13.3 59.6,-32 98.38,-92.8 107.36,-160.1 14.35,-107.4 5.33,-308.8 -27.6,-373.7 l -31.2,-61.5 c -25.16,-49.6 -75.56,-81.3 -131.06,-82.2 -483.37,-7.9 -2661.96,-8.6 -3253.72,-5.3 -541.01,3.1 -758.36,270.7 -1047.11,1027.3 -114.73,300.7 -475.61,1553.9 -178.73,2209.5"
         style="fill:#ffffff;fill-opacity:1;fill-rule:nonzero;stroke:none"
         id="path162" />
      <path
         d="m 4184.16,13152.2 c -293.25,-647.6 72.91,-1913.6 179.24,-2192.3 302.34,-792.3 522.93,-1010 1026.28,-1012.8 597.33,-3.4 2772.93,-2.6 3253.23,5.3 47.25,0.7 89.95,27.5 111.41,69.8 l 31.21,61.5 c 29.96,59.2 39.69,253.3 25.36,360.6 -8.28,62 -44.06,115.6 -95.74,143.3 -15.14,8.1 -25.02,10.3 -30.64,10.8 l -910.46,103.9 c -43.73,5 -83.79,28.3 -109.89,63.8 -126.54,172.4 -542.82,774.5 -586.86,1282.8 -2.06,23.8 10.65,45.4 32.37,54.9 21.55,9.5 45.84,4.4 61.85,-13 59.97,-65.3 125.01,-150.9 193.89,-241.5 168.91,-222.3 379.14,-498.9 648.67,-652.1 451.42,-256.7 1447.45,116.2 1741.96,236.5 54.38,22.3 98.57,63.4 124.41,115.8 44.69,90.7 88.3,220.8 42.31,325.8 -54.59,124.7 -136.39,248.1 -329.01,220.2 -48.93,-16.3 -709.44,-228.4 -1101.46,56.6 -214.62,156 -273.11,238.7 -519.31,587 -27.61,39 -57.6,81.4 -90.47,127.7 -16.18,14.4 -60.23,65.3 -220.18,264.1 -248.23,308.4 -594.03,515.5 -973.7,583.2 -268.22,47.7 -539.36,63.7 -784.05,46.1 l -604.16,-23.8 c -171.25,-6.7 -336.49,-40.9 -491.1,-101.4 -225.47,-88.4 -516.96,-243.9 -625.16,-482.8 z M 6492.63,9900.3 c -470.34,0 -888.56,0.7 -1103.22,1.9 -574.86,3.3 -794.05,324 -1067.93,1041.7 -114.62,300.4 -480.8,1558.6 -178.21,2226.8 114.44,252.7 416.47,414.7 649.68,506 159.28,62.5 329.43,97.6 505.72,104.5 l 603.42,23.8 c 247.68,17.8 522.62,1.7 794.4,-46.8 390.35,-69.5 745.77,-282.3 1000.8,-599.2 170.37,-211.7 206.3,-251.2 213.69,-257.9 2.55,-1.5 4.77,-3.6 6.53,-6.1 33.51,-47.1 64.04,-90.3 92.11,-130 242.74,-343.4 300.42,-425 509.05,-576.6 380,-276.3 1055.86,-52.1 1062.64,-49.8 1.26,0.5 2.55,0.8 3.87,1 254.14,38.2 341.42,-161.2 378.69,-246.3 52.93,-120.8 5.73,-264.4 -43.17,-363.6 -30.7,-62.3 -83.14,-111.1 -147.68,-137.5 -299.24,-122.3 -1312.12,-500.6 -1781.12,-234.1 -277.51,157.8 -490.83,438.5 -662.23,664 -68.21,89.8 -132.64,174.6 -191.19,238.3 -4.02,4.4 -8.45,3.4 -10.72,2.3 -2.39,-1 -6.3,-3.7 -5.76,-9.9 43.04,-496.7 453.55,-1090.1 578.33,-1260.1 18.74,-25.5 47.46,-42.2 78.81,-45.8 l 909.57,-103.9 c 13.79,-1 29.67,-6.2 47.66,-15.9 64.33,-34.5 108.83,-100.6 119,-176.8 13.96,-104.6 7.59,-313.1 -29.82,-386.9 l -31.21,-61.5 c -29.01,-57.2 -86.76,-93.4 -150.71,-94.4 -307.87,-5.1 -1312.12,-7.2 -2151,-7.2"
         style="fill:#000000;fill-opacity:1;fill-rule:nonzero;stroke:none"
         id="path164" />
      <path
         d="m 9041.66,9907 h 1055.74 v 0.3 c 0,179.7 -145.66,325.4 -325.35,325.4 h -405.04 c -179.69,0 -325.35,-145.7 -325.35,-325.4 v -0.3"
         style="fill:#ffffff;fill-opacity:1;fill-rule:nonzero;stroke:none"
         id="path166" />
      <path
         d="m 9064.9,9929.4 h 1009.2 c -11.5,156.9 -142.56,280.8 -302.05,280.8 h -405.04 c -159.59,0 -290.76,-124 -302.11,-280.8 z m 1032.5,-44.9 H 9041.66 c -12.39,0 -22.44,10.1 -22.44,22.5 v 0.3 c 0,191.8 156.02,347.8 347.79,347.8 h 405.04 c 191.76,0 347.75,-156 347.75,-347.8 0,-12.4 -10,-22.8 -22.4,-22.8"
         style="fill:#000000;fill-opacity:1;fill-rule:nonzero;stroke:none"
         id="path168" />
      <path
         d="m 8584.59,10404.9 c 18.69,36.6 50.02,65.6 88.59,79.4 27.64,10 54.85,23.1 80.78,36.9 l 359.24,191 c 67.3,33 163.5,-44 233.35,-67 210.81,-69.3 647.29,-232.7 611.33,-386.2 -38.8,-165.6 -413.91,-87.2 -547.07,-53.8 -30.44,7.6 -306.05,-92.4 -393.18,-99 -120.4,-9.1 -148.21,21.5 -207.08,52.5 -26.84,14.1 -56.72,20.5 -89.15,20.7 -49.61,0.3 -96.83,21.2 -127.87,60 l -0.73,0.9 c -34.22,42.8 -40.2,101.8 -15.27,150.7 l 7.06,13.9"
         style="fill:#ffffff;fill-opacity:1;fill-rule:nonzero;stroke:none"
         id="path170" />
      <path
         d="m 8604.58,10394.7 -7.05,-13.9 c -20.9,-40.9 -15.88,-90.6 12.8,-126.5 26.69,-33.4 66.96,-52.2 111.22,-52.5 37.09,-0.2 70.55,-8 99.45,-23.3 9.58,-5 18.37,-10 26.85,-14.9 42.74,-24.5 73.56,-42.1 168.09,-35.1 42.75,3.3 138.13,31.7 222.26,56.7 116.61,34.8 159.17,46.5 178.06,41.7 84.15,-21.1 367.36,-84.6 478.97,-16.6 22.14,13.5 35.49,31.1 40.8,53.8 21.94,93.7 -206.62,231.5 -596.49,359.8 -22.46,7.4 -46.2,19.4 -71.33,32 -50.6,25.5 -107.97,54.4 -145.13,36.1 l -358.6,-190.6 c -32.06,-17 -58.66,-29.2 -83.71,-38.2 -32.54,-11.7 -59.6,-36.1 -76.19,-68.5 z m 372.76,-312.6 c -77.56,0 -112.38,20 -151.82,42.6 -8.03,4.6 -16.35,9.4 -25.42,14.1 -22.79,12 -48.59,18 -78.86,18.2 -57.84,0.4 -110.79,25.3 -145.25,68.4 -40.38,50.5 -47.34,119.2 -18.44,175.8 l 7.05,13.8 c 0.01,0.1 0.01,0.1 0.01,0.1 21.8,42.7 57.66,74.8 100.98,90.3 22.98,8.3 47.71,19.6 77.84,35.6 l 359.24,191 c 57.83,28.4 125.77,-5.8 185.72,-36 23.59,-11.9 45.87,-23.1 65.17,-29.5 306.16,-100.7 663.34,-254.1 626.16,-412.6 -8.08,-34.6 -28.66,-62.1 -61.12,-81.9 -118.66,-72.3 -372.49,-23.9 -513.25,11.4 -13.19,0.4 -91.67,-22.5 -154.34,-41.2 -90.53,-26.9 -184.13,-54.8 -231.68,-58.4 -15.29,-1.2 -29.23,-1.7 -41.99,-1.7"
         style="fill:#000000;fill-opacity:1;fill-rule:nonzero;stroke:none"
         id="path172" />
      <path
         d="m 11221.5,11836.9 c 20.3,24.4 11.4,61.8 -17.7,74.5 l -637.5,279.2 c -90.4,39.6 -192,43.5 -283.8,10.1 -94.2,-34.4 -229.8,-79.6 -385.36,-119 -401.39,-101.7 -431.46,-631.2 -16.29,-427.3 132.15,64.9 211.45,113.9 211.45,113.9 -1.1,-0.3 150.8,-203.9 393.9,-112.1 110.8,41.9 181.6,91.9 223.4,129.3 35.3,31.7 84.4,43.4 130.2,31.4 109.9,-28.7 271.2,-113.2 381.7,20"
         style="fill:#ffffff;fill-opacity:1;fill-rule:nonzero;stroke:none"
         id="path174" />
      <path
         d="m 10411.3,12200.9 c -41,0 -81.9,-7.1 -121.1,-21.3 -88.3,-32.2 -227.3,-79.1 -387.55,-119.7 -172,-43.5 -271.12,-168.9 -293.04,-273.8 -12.35,-59.1 -0.18,-107.9 33.37,-133.9 45.6,-35.4 126.55,-27.5 227.98,22.3 129.44,63.6 208.74,112.4 209.54,112.9 8.1,5 18.5,4.4 25.9,-1.6 2.1,-1.7 3.8,-3.7 5.2,-6 7.2,-9.5 146.2,-185.9 366.7,-102.6 109.6,41.5 178.1,90.9 216.3,125.1 41,36.7 97.4,50.3 150.9,36.4 18.5,-4.9 38.1,-11.1 58.7,-17.8 101.9,-32.5 217.3,-69.4 300.1,30.3 v 0 c 5.1,6.2 7,14.2 5.1,22.1 -1.9,8 -7.2,14.3 -14.6,17.6 l -637.5,279.2 c -46.9,20.5 -96.5,30.8 -146,30.8 z m -695.48,-615 c -39.85,0 -73.83,10.2 -100.36,30.8 -47.61,37 -65.77,102.1 -49.78,178.6 24.78,118.5 135.18,259.8 325.95,308.1 158.47,40.2 295.87,86.5 383.17,118.3 97.4,35.5 204.1,31.7 300.5,-10.5 l 637.5,-279.2 c 20.4,-9 35.1,-26.6 40.3,-48.4 5.1,-21.7 -0.1,-44 -14.3,-61.1 -102.2,-123 -244.4,-77.5 -348.2,-44.3 -20.1,6.4 -39.1,12.5 -56.5,17 -38.8,10.2 -79.8,0.3 -109.5,-26.4 -41.1,-36.7 -114.3,-89.7 -230.4,-133.6 -175.6,-66.3 -306.4,13.1 -368.7,66.3 -18.1,15.5 -30.4,27.7 -38.7,37.3 -30.3,-17.8 -98.6,-56.7 -196.06,-104.6 -65.52,-32.1 -124.86,-48.3 -174.92,-48.3"
         style="fill:#000000;fill-opacity:1;fill-rule:nonzero;stroke:none"
         id="path176" />
      <path
         d="m 10260.8,11827.5 c -60.4,0 -113.7,38.4 -139.5,66.9 -8.3,9.2 -7.6,23.4 1.6,31.7 9.2,8.3 23.4,7.6 31.7,-1.6 3.2,-3.6 82.2,-88.4 162.3,-34 49.2,33.4 121.4,61.5 176.3,40.1 167.8,-65.3 202.2,-8.4 202.5,-7.8 8.2,16 10,28.9 6.1,40.3 -5.8,16.7 -24.9,33 -55.2,47 l -182.5,74.5 c -11.5,4.7 -17,17.8 -12.3,29.3 4.7,11.5 17.7,16.9 29.2,12.3 l 183.5,-75 c 43.2,-19.9 69.7,-44.5 79.7,-73.5 8.1,-23.3 5.3,-48.3 -8.1,-74.4 -4,-9.1 -50.2,-95.8 -259.1,-14.5 -31.5,12.3 -85.7,-2 -134.9,-35.4 -27.3,-18.6 -55,-25.9 -81.3,-25.9"
         style="fill:#000000;fill-opacity:1;fill-rule:nonzero;stroke:none"
         id="path178" />
      <path
         d="m 7776.63,10702.2 c -1.01,0 -2.02,0 -3.03,0.2 -54.97,7.4 -124.44,14.2 -204.89,22.2 -351.29,34.8 -882.15,87.4 -1388.45,286.4 -611.84,240.4 -1010.46,632.5 -1184.8,1165.4 -3.84,11.7 2.58,24.4 14.35,28.3 11.78,3.9 24.44,-2.6 28.3,-14.4 395.52,-1209 1840.58,-1352.2 2535.03,-1421 80.86,-8 150.69,-15 206.44,-22.5 12.29,-1.6 20.91,-12.9 19.25,-25.2 -1.52,-11.3 -11.15,-19.4 -22.2,-19.4"
         style="fill:#000000;fill-opacity:1;fill-rule:nonzero;stroke:none"
         id="path180" />
      <path
         d="m 6011.67,13956.2 c 9.8,34.3 40.3,58.6 75.62,60 l 264.95,8.8 c 33.83,1.4 62.71,25.4 70.58,58.7 l 71.49,302.5 119.29,54.2 c 9.36,4.3 13.66,15.2 9.71,24.7 l -93.74,225.9 c -27.87,83 -27.04,261 -70.21,262 0,0 -809.36,353 -985.12,-50.7 -26.57,-61 -28.04,-130.2 -6.9,-193.4 l 43.17,-128.8 c 43.14,-128.8 43.39,-270.6 -9.37,-396.1 -10.96,-26.1 -52.06,-111 -119.52,-212.9 -56.84,-86 -175.68,-175.1 -261.17,-232.3 -48.32,-32.4 -51.38,-102.6 -6.16,-139.2 87.64,-70.8 219.92,-170.4 315.35,-209 225.26,-91 338.82,-114.5 453.86,-101.8 111.86,12.3 175.3,127 136.7,233 -80.23,220.3 -8.53,434.4 -8.53,434.4"
         style="fill:#ffffff;fill-opacity:1;fill-rule:nonzero;stroke:none"
         id="path182" />
      <path
         d="m 6458.82,14930.6 c 0.01,0 0.02,0 0.02,0 0,0 -0.01,0 -0.02,0 z m -447.16,-974.4 h 0.22 z m -165.96,1117.6 c -180.91,0 -298.6,-60.4 -350.88,-180.5 -23.9,-54.9 -26.1,-117.8 -6.2,-177.2 l 43.16,-128.9 c 46.66,-139.3 43.12,-285.6 -9.96,-411.9 -13.15,-31.3 -55.48,-116.9 -121.48,-216.6 -58.4,-88.3 -177.65,-178.5 -267.41,-238.6 -17.01,-11.4 -27.29,-29.7 -28.22,-50.2 -0.93,-20.6 7.71,-39.9 23.7,-52.8 90.76,-73.4 218.16,-168.7 309.64,-205.7 216.92,-87.6 328.66,-113 442.98,-100.3 44.46,4.9 81.85,28.3 105.24,66 25.15,40.5 29.82,90.4 12.85,137 -80.88,222.1 -13.62,434.4 -8.89,448.7 12.64,43.5 51.21,74 96.12,75.8 l 265.15,8.8 c 23.51,1 43.94,18 49.49,41.5 l 71.48,302.5 c 1.6,6.7 6.24,12.4 12.56,15.2 l 116.33,52.9 -92.51,222.9 c -11.76,34.8 -18.38,81.1 -24.76,125.9 -5.91,41.3 -15.7,109.9 -27.8,122.5 -2.03,0.2 -4.02,0.8 -5.89,1.6 -2.01,0.9 -203.02,87.8 -422.12,124.6 -66.65,11.2 -127.55,16.8 -182.58,16.8 z m -19.63,-1810.7 c -103.77,0 -216.59,30.7 -404.83,106.7 -96.62,39.1 -227.92,137.1 -321.05,212.4 -27.2,22 -41.89,54.7 -40.31,89.7 1.58,34.9 19.09,66.1 48.07,85.5 86.36,57.9 200.68,144 254.96,226 66.56,100.6 107.42,185.2 117.54,209.3 48.86,116.3 51.98,251.3 8.78,380.3 l -43.17,128.8 c -23.43,70 -20.72,144.3 7.61,209.4 76.45,175.6 277.99,241.3 582.76,190 208.64,-35.2 400.85,-114.5 428.51,-126.2 41.52,-6 51.31,-74.5 63.57,-160.4 6.1,-42.8 12.42,-87 22.33,-116.5 l 93.19,-224.4 c 8.63,-20.8 -0.66,-44.4 -21.12,-53.7 l -109.3,-49.7 -68.95,-291.7 c -10.15,-43 -47.78,-74.3 -91.49,-76.1 l -265.15,-8.7 c -25.52,-1.1 -47.61,-18.7 -54.79,-43.8 -0.09,-0.3 -0.19,-0.6 -0.29,-0.9 -0.68,-2.1 -68.12,-209.7 8.33,-419.6 21.73,-59.7 15.58,-123.8 -16.88,-176.1 -30.38,-48.9 -80.84,-80.6 -138.45,-86.9 -19.92,-2.3 -39.73,-3.4 -59.87,-3.4"
         style="fill:#000000;fill-opacity:1;fill-rule:nonzero;stroke:none"
         id="path184" />
      <path
         d="m 6684.29,15591.8 c -189.91,68.8 -6.17,-203.9 -658.66,219.4 -259.82,168.5 -214.75,-208.9 -282.27,-165.4 -249.35,160.8 -240.69,155.6 -384.28,160.1 -95.08,2.9 -200.88,-143.6 -220.45,-270.9 -25.83,-168 124.5,-572.1 242.02,-881.7 60.55,-159.4 281.99,-240.7 380.24,-53.2 27.14,51.8 -88.93,216 0.93,283.3 165.22,123.6 169.06,-133.3 296.94,-97.9 122.78,34 178.16,63.3 316.98,129.1 167.99,79.5 332.26,-174.5 490.39,71.8 82.47,128.5 78.15,511.1 -181.84,605.4"
         style="fill:#000000;fill-opacity:1;fill-rule:nonzero;stroke:none"
         id="path186" />
      <path
         d="M 6848.89,3461.9 5327.96,8730.1 3807.04,3461.9 h -364.56 l 1671.08,5944.6 428.67,0.6 1671.22,-5945.2 h -364.56"
         style="fill:#ffffff;fill-opacity:1;fill-rule:nonzero;stroke:none"
         id="path188" />
      <path
         d="m 6865.76,3484.3 h 318.07 L 5525.23,9384.6 5130.57,9384 3472.09,3484.3 h 318.08 L 5306.4,8736.4 c 2.77,9.6 11.57,16.2 21.56,16.2 9.99,0 18.79,-6.6 21.57,-16.2 z m 347.68,-44.8 h -364.55 c -10,0 -18.79,6.6 -21.57,16.2 L 5327.96,8649.2 3828.6,3455.7 c -2.77,-9.6 -11.57,-16.2 -21.56,-16.2 h -364.55 c -7.03,0 -13.65,3.2 -17.89,8.8 -4.25,5.6 -5.62,12.9 -3.72,19.7 l 1671.08,5944.5 c 2.71,9.7 11.54,16.4 21.57,16.4 l 428.66,0.6 c 0.01,0 0.02,0 0.03,0 10.06,0 18.88,-6.7 21.61,-16.4 L 7235.05,3468 c 1.89,-6.8 0.53,-14.1 -3.73,-19.7 -4.24,-5.6 -10.85,-8.8 -17.88,-8.8"
         style="fill:#000000;fill-opacity:1;fill-rule:nonzero;stroke:none"
         id="path190" />
      <path
         d="M 3439.09,9317.4 H 17520.7 v 572.4 H 3439.09 v -572.4"
         style="fill:#ffffff;fill-opacity:1;fill-rule:nonzero;stroke:none"
         id="path192" />
      <path
         d="M 3461.52,9339.8 H 17498.3 v 527.6 H 3461.52 Z M 17520.7,9295 H 3439.09 c -12.4,0 -22.44,10 -22.44,22.4 v 572.4 c 0,12.4 10.04,22.4 22.44,22.4 H 17520.7 c 12.4,0 22.4,-10 22.4,-22.4 v -572.4 c 0,-12.4 -10,-22.4 -22.4,-22.4"
         style="fill:#000000;fill-opacity:1;fill-rule:nonzero;stroke:none"
         id="path194" />
      <path
         d="m 6837.25,9429.4 c -12.39,0 -22.44,10.1 -22.44,22.5 v 318.7 c 0,12.4 10.05,22.5 22.44,22.5 12.39,0 22.44,-10.1 22.44,-22.5 v -318.7 c 0,-12.4 -10.05,-22.5 -22.44,-22.5"
         style="fill:#000000;fill-opacity:1;fill-rule:nonzero;stroke:none"
         id="path196" />
      <path
         d="m 14604.6,4787.2 81.6,-926.7 -875,-92.1 271.7,371.2 c 72.6,99 97.4,225.4 67.8,344.6 l -74.3,299.2 528.2,3.8"
         style="fill:#ffffff;fill-opacity:1;fill-rule:nonzero;stroke:none"
         id="path198" />
      <path
         d="m 14105,4761.2 67.4,-271.6 c 31.4,-126.1 5.3,-258.5 -71.4,-363.3 l -241.7,-330.3 802.7,84.5 -77.9,884.1 z M 13811.2,3746 c -7.9,0 -15.4,4.2 -19.4,11.2 -4.4,7.7 -3.9,17.3 1.3,24.5 l 271.7,371.1 c 68.9,94 92.2,212.9 64.1,326 l -74.3,299.2 c -1.6,6.7 -0.1,13.7 4.1,19.2 4.2,5.4 10.7,8.6 17.5,8.7 l 528.3,3.8 h 0.1 c 11.6,0 21.3,-8.9 22.4,-20.5 l 81.6,-926.7 c 1.1,-12.2 -7.8,-23 -20,-24.3 l -875,-92.1 c -0.8,-0.1 -1.6,-0.1 -2.4,-0.1"
         style="fill:#000000;fill-opacity:1;fill-rule:nonzero;stroke:none"
         id="path200" />
      <path
         d="m 14746.8,4019 72.9,-381.2 c 0,0 10.3,-139.4 -131.7,-163.7 -184.5,-31.6 -902.6,-130 -1411.4,-37.7 -116.7,21.2 -169.2,94.3 -178.9,132.6 -26.9,105.6 40.8,256.9 253.7,335.6 379.8,140.4 524.7,186.2 709.5,311.5 41.1,27.8 103,-1.8 131.1,-38.8 0,0 67,-97.9 66,-200.8 -0.4,-37 37.9,-61.7 71.8,-47.2 l 324,139.2 c 39.7,17 84.8,-7.1 93,-49.5"
         style="fill:#ffffff;fill-opacity:1;fill-rule:nonzero;stroke:none"
         id="path202" />
      <path
         d="m 14098.8,4204.6 c -9.3,0 -18,-2.2 -25.3,-7.1 -166.2,-112.6 -300.3,-161.8 -594,-269.7 -37.4,-13.7 -77.3,-28.4 -120.3,-44.3 -199.9,-73.9 -264.5,-212 -239.8,-309 6.5,-25.3 48,-95.5 161.2,-116 454.9,-82.5 1117,-11.4 1403.6,37.7 115.5,19.8 113.9,125.7 113.2,138.8 l -72.7,379.7 c -2.6,13.6 -11,25.1 -23.2,31.6 -12.1,6.4 -26.3,7 -38.8,1.6 l -324,-139.2 c -23.2,-9.9 -49.5,-7.5 -70.5,6.5 -20.7,13.8 -32.9,36.8 -32.7,61.5 0.9,94.3 -61.4,187 -62.1,187.9 -16.9,22.4 -48.2,40 -74.6,40 z M 13780.7,3375 c -173.1,0 -349.4,10.5 -508.1,39.3 -131.6,23.9 -186.2,108 -196.7,149.2 -29.4,115.9 41.8,278.6 267.8,362.1 43,15.9 82.9,30.6 120.3,44.3 290.2,106.6 422.7,155.2 584.4,264.7 55.3,37.6 129.3,-1.3 161.5,-43.8 3.5,-5.1 71.5,-105.8 70.5,-214.5 -0.1,-9.7 4.5,-18.3 12.7,-23.8 8.5,-5.6 18.6,-6.5 27.9,-2.5 l 324,139.1 c 25.1,10.8 53.4,9.6 77.5,-3.2 24.3,-12.9 41.1,-35.7 46.3,-62.7 l 73,-381.2 c 0.2,-0.9 0.3,-1.7 0.3,-2.6 4.1,-55.2 -22.1,-165.4 -150.3,-187.4 -24.7,-4.3 -456.2,-77 -911.1,-77"
         style="fill:#000000;fill-opacity:1;fill-rule:nonzero;stroke:none"
         id="path204" />
      <path
         d="m 13795.6,3512.2 c -152.7,0 -314.8,8.1 -476.2,29.8 -12.3,1.7 -20.9,13 -19.2,25.3 1.6,12.2 12.6,20.8 25.2,19.2 638.8,-86 1291.9,43.1 1298.5,44.4 12.1,2.5 23.9,-5.4 26.4,-17.5 2.4,-12.2 -5.4,-24 -17.6,-26.5 -4.9,-1 -378.1,-74.7 -837.1,-74.7"
         style="fill:#000000;fill-opacity:1;fill-rule:nonzero;stroke:none"
         id="path206" />
      <path
         d="m 16501.5,5074.8 c 18.3,-232.7 130.9,-502.2 223.4,-639.8 l -410.4,-311.1 -310.6,307.3 c 72.5,99.1 137.3,331.2 39.6,637.5 l 458,6.1"
         style="fill:#ffffff;fill-opacity:1;fill-rule:nonzero;stroke:none"
         id="path208" />
      <path
         d="m 16033,4434 283.4,-280.5 378.3,286.7 c -92.9,145.9 -191.6,393.3 -213.7,611.9 l -407.3,-5.5 c 81.6,-280 32.1,-499.6 -40.7,-612.6 z m 281.5,-332.6 c -5.8,0 -11.5,2.2 -15.8,6.5 l -310.6,307.3 c -7.9,7.9 -8.9,20.3 -2.3,29.3 60.3,82.4 135.9,305.2 36.3,617.3 -2.1,6.8 -0.9,14.2 3.2,20 4.2,5.8 10.8,9.2 17.9,9.3 l 458,6.1 c 0.1,0 0.2,0 0.3,0 11.7,0 21.5,-9 22.4,-20.6 17.5,-222.5 126.2,-490.2 219.6,-629.1 6.7,-9.9 4.4,-23.2 -5,-30.4 L 16328,4106 c -4,-3.1 -8.8,-4.6 -13.5,-4.6"
         style="fill:#000000;fill-opacity:1;fill-rule:nonzero;stroke:none"
         id="path210" />
      <path
         d="m 16738.8,4522.9 170,-300.4 c 0,0 60.8,-129.4 -65.8,-204.9 -119.5,-71.3 -507.3,-295.9 -896.4,-440.1 -147.4,-54.7 -576,-83.3 -676.9,48.3 -67.7,88.3 -41.7,203.5 135.5,298.3 395.9,211.8 487.9,540.2 544.9,617 86.9,117.2 235.3,-87.7 275.6,-244 9.7,-37.5 54.4,-52.4 84.4,-28 l 333.7,271.8 c 30.4,24.7 75.7,16.2 95,-18"
         style="fill:#ffffff;fill-opacity:1;fill-rule:nonzero;stroke:none"
         id="path212" />
      <path
         d="m 16010.1,4553.4 c -11.7,0 -26.5,-4.8 -42,-25.7 -10.3,-13.9 -22.9,-38.9 -38.8,-70.6 -66.8,-132.9 -191,-380.2 -513.5,-552.8 -89.4,-47.8 -143.1,-103.1 -155.3,-159.9 -7.8,-36.1 1.3,-71.4 27.1,-105 88.7,-115.8 496.4,-98.3 651.2,-40.9 376.4,139.5 749.6,353 892.7,438.3 107.9,64.5 59.1,171.6 56.9,176.1 l -169.1,299 c -5.9,10.5 -16.1,17.8 -28,20 -11.9,2.3 -24,-0.8 -33.3,-8.4 l -333.8,-271.8 c -19.9,-16.3 -46.4,-21.2 -70.8,-13.2 -24.5,8.1 -43,27.9 -49.4,53 -28.2,109.5 -114.8,247.3 -184,260.9 -2.9,0.5 -6.3,1 -9.9,1 z m -394.8,-1044.1 c -152.8,0 -305.2,27 -363.4,102.8 -33.6,43.9 -45.9,92.9 -35.3,141.8 15.1,70 76.7,135.8 178,190 309.9,165.8 430,404.9 494.6,533.3 16.9,33.7 30.2,60.2 42.8,77.3 32.6,43.9 70.5,47 96.6,41.9 98.4,-19.2 190.3,-182.9 218.8,-293.7 2.7,-10.4 10,-18.2 20,-21.5 10,-3.3 20.4,-1.4 28.5,5.3 l 333.8,271.8 c 19.6,15.9 45.1,22.4 69.9,17.7 24.9,-4.7 46.3,-20 58.8,-42.1 l 169.9,-300.4 c 24.8,-52.6 40.1,-167.2 -73.8,-235.2 -144.1,-86 -520.2,-301.1 -900.1,-441.9 -71.5,-26.5 -205.4,-47.1 -339.1,-47.1"
         style="fill:#000000;fill-opacity:1;fill-rule:nonzero;stroke:none"
         id="path214" />
      <path
         d="m 15587.3,3676.7 c -47.5,0 -93,3.5 -132.2,11.9 -12.1,2.5 -19.8,14.5 -17.3,26.6 2.6,12.1 14.5,19.9 26.6,17.2 106.3,-22.6 275.2,-6.6 387.2,20.8 499.2,122.4 872.1,433.4 875.8,436.5 9.5,8 23.6,6.8 31.6,-2.7 8,-9.4 6.8,-23.6 -2.7,-31.6 -3.8,-3.2 -384.7,-321 -894.1,-445.8 -75.7,-18.6 -179.3,-32.9 -274.9,-32.9"
         style="fill:#000000;fill-opacity:1;fill-rule:nonzero;stroke:none"
         id="path216" />
      <path
         d="m 15082.2,8019.6 c -66.3,-725.4 538.5,-2408.1 761.9,-2949.2 25.1,-60.6 80.6,-106.7 151.4,-106.7 h 515 c 87.2,0 157.6,65.4 156.8,145.7 -5.8,570.4 -264.9,2180.1 118.3,2778.9 221.8,346.6 880.8,200.3 1152.4,365.2 652.1,396 406.6,1685.4 406.6,1685.4 0,0 -3170,-907.8 -3262.4,-1919.3"
         style="fill:#ffffff;fill-opacity:1;fill-rule:nonzero;stroke:none"
         id="path218" />
      <path
         d="m 18326.7,9910.3 c -292.7,-86.8 -3136.4,-954 -3222.2,-1892.7 -62,-678.9 485.5,-2273 760.4,-2938.6 23.6,-57.3 73.7,-92.8 130.6,-92.8 h 515 c 38.1,0 74.5,14.7 100,40.4 22.4,22.7 34.7,52 34.3,82.6 -1.3,132 -16.4,321.1 -33.8,540 -56.7,711 -142.3,1785.4 155.7,2251.1 140.1,219 446.7,249.4 717.1,276.3 174.7,17.3 339.7,33.7 442.6,96.1 582.6,353.8 429.4,1458.9 400.3,1637.6 z m -1816.2,-4969 h -515 c -75.4,0 -141.4,46.2 -172.1,120.6 -178.8,433.1 -832.6,2204.6 -763.6,2959.7 l 22.4,-2 -22.4,2 c 39.2,428.3 604.1,885 1679.2,1357.5 796.3,349.9 1591.5,579.1 1599.4,581.4 6.1,1.7 12.6,0.8 17.9,-2.5 5.4,-3.3 9.1,-8.7 10.3,-14.9 10.2,-53.3 240.8,-1309.3 -416.9,-1708.7 -111.6,-67.8 -281.5,-84.6 -461.4,-102.5 -273.1,-27.1 -555.4,-55.1 -683.8,-255.7 -289.9,-453.1 -205,-1518.5 -148.8,-2223.5 17.5,-219.7 32.7,-409.5 34,-543.1 0.5,-42.6 -16.4,-83.3 -47.3,-114.5 -33.9,-34.2 -81.9,-53.8 -131.9,-53.8"
         style="fill:#000000;fill-opacity:1;fill-rule:nonzero;stroke:none"
         id="path220" />
      <path
         d="m 16127.9,9801.7 c 0,0 -2149.9,-17.9 -2827.8,-767.7 -609.3,-673.8 294,-3730.1 483.1,-4323.9 19.6,-61.5 80.8,-103.7 150.4,-103.7 h 807.7 c 17,0 30.8,12.8 30.8,28.4 l -128.5,1162 c -137.6,1542.2 30.1,1868.3 30.1,1868.3 136,436.2 1299.9,417.6 1932.6,413.2 2009.3,-13.8 1418.9,1749.1 1418.9,1749.1 l -1897.3,-25.7"
         style="fill:#ffffff;fill-opacity:1;fill-rule:nonzero;stroke:none"
         id="path222" />
      <path
         d="m 16127.9,9801.7 h 0.2 z m 1880.8,3 -1880.5,-25.5 h -0.1 c -21.4,-0.2 -2147.9,-26.3 -2811.4,-760.2 -645.1,-713.6 441.3,-4155.9 487.9,-4302.1 16.5,-51.8 69.5,-88 129,-88 h 807.7 c 4.5,0 7.8,2.6 8.3,5.3 l -128.3,1160.1 c -132.8,1488.5 16.6,1847.7 31.6,1879.1 140.1,440.5 1247.6,432.4 1909.5,427.7 l 44,-0.3 c 611.2,-4.3 1040.5,156.9 1274.1,479.1 334.6,461.3 160.5,1116 128.2,1224.8 z M 14741.3,4584 h -807.7 c -80,0 -149,47.9 -171.8,119.3 -46.9,147.2 -1140.6,3613.3 -478.4,4345.8 676.5,748.1 2754.4,774.2 2844.2,775 l 1897.3,25.7 c 8.8,-0.4 18.4,-6 21.5,-15.3 2.6,-7.5 248.2,-759.9 -129.4,-1280.7 -242.6,-334.7 -683.8,-501.6 -1310.9,-497.9 l -44,0.3 c -607.7,4.5 -1739,12.6 -1866.9,-397.8 -0.4,-1.2 -0.9,-2.4 -1.5,-3.6 -1.6,-3.1 -162.5,-346.3 -27.7,-1856 l 128.4,-1161.5 c 0.1,-0.8 0.1,-1.6 0.1,-2.5 0,-28 -23.8,-50.8 -53.2,-50.8"
         style="fill:#000000;fill-opacity:1;fill-rule:nonzero;stroke:none"
         id="path224" />
      <path
         d="m 14625.6,11154.4 c -13.6,3.6 -319.7,-11.5 -348.6,-1.7 -144.4,49 -448.7,159.2 -591.8,160.2 -161.5,1.1 -314.8,27.8 -407.6,47.5 -55.9,11.8 -96.1,-10.7 -106.7,-47 -9.2,-31.8 0.7,-105.5 83.6,-124.2 95.8,-21.8 191.2,-45.9 272.8,-65.2 25.7,-6.1 52.2,-7.1 28,-15.6 -56.4,-19.8 -117.6,-51.6 -121.5,-97.3 -7.3,-85.8 204.8,-281.2 438.1,-295.5 200.1,-12.3 255.3,86.1 331.8,100.5 12.7,2.4 345.7,-5.8 360.4,-2.7 150.9,31.2 142.7,319.9 61.5,341"
         style="fill:#ffffff;fill-opacity:1;fill-rule:nonzero;stroke:none"
         id="path226" />
      <path
         d="m 13248.9,11341.1 c -28.6,0 -50.2,-12.4 -56.4,-33.9 -3.9,-13.5 -2.7,-37.2 9.2,-57.5 11.6,-19.6 31,-32.6 57.7,-38.7 60.5,-13.7 120.8,-28.3 177.6,-42.2 33.3,-8 65.3,-15.8 95.5,-23 5.6,-1.3 11.4,-2.4 16.5,-3.3 18.1,-3.4 36.7,-7 38.2,-26.7 1.5,-19.4 -18,-26.3 -24.5,-28.5 -65.4,-23 -104.3,-51.5 -106.5,-78.1 -1.7,-19.3 14.7,-51 43.9,-84.8 71.8,-83.2 219.2,-177 373.2,-186.4 127.3,-7.9 192.3,31.4 244.5,62.9 27,16.3 52.6,31.8 81.7,37.3 6.9,1.2 33.8,1.1 168.9,-1 76.3,-1.3 180.8,-2.9 192.3,-1.7 70.5,14.6 98,101.8 99.8,172 1.7,67 -18.9,118 -39.5,124.9 -10.3,0.6 -58.3,-0.7 -104.7,-2 -155.4,-4.4 -227.8,-5.3 -246.5,1.1 -15.3,5.2 -32.5,11 -51,17.4 -153.1,52.7 -409.4,140.7 -533.8,141.6 -158.9,1.1 -311.8,26.6 -412.1,47.9 -8.4,1.8 -16.4,2.7 -24,2.7 z m 656.3,-649 c -11.1,0 -22.7,0.4 -34.7,1.1 -167.8,10.3 -324,108.8 -404.4,201.9 -26.8,31.2 -58.2,76.9 -54.6,117.9 3.1,36.6 31.7,68.6 85.1,95.3 -22.6,5.4 -46.1,11.1 -70.2,16.9 -56.6,13.8 -116.6,28.4 -176.9,42.1 -48.9,11.1 -74,38.6 -86.5,59.7 -20,34.1 -19.9,71.2 -13.6,92.7 14.7,50.4 69.2,76.2 132.9,62.6 98.2,-20.8 247.8,-45.9 403,-46.9 131.7,-0.9 392.3,-90.5 548.1,-144 18.5,-6.4 35.5,-12.3 50.8,-17.4 18.3,-4.7 156.6,-0.8 230.9,1.2 94.8,2.7 108.9,2.8 116.1,0.9 53.8,-14 76,-95.3 74.2,-169.7 -2.2,-86.6 -39.4,-194.9 -136.7,-215 -8.4,-1.8 -44.1,-1.6 -201,0.9 -71.1,1.1 -151.7,2.4 -161.2,1.6 -19.8,-3.8 -41,-16.6 -65.5,-31.4 -49.9,-30.1 -116.6,-70.4 -235.8,-70.4"
         style="fill:#000000;fill-opacity:1;fill-rule:nonzero;stroke:none"
         id="path228" />
      <path
         d="m 16255.2,13005 c -423.7,-331.9 -562.3,-1292.4 -833.5,-1509.2 -235.1,-188 -1077.2,-247.8 -1077.2,-247.8 l -6.4,-539.1 734.9,-28.6 c 442.2,-16.7 865.6,162.7 1022.2,309.6 520.6,488.6 1603.3,1522.3 1876.4,2212 l -760,79.6 c 0,0 -486.7,91.4 -956.4,-276.5"
         style="fill:#000000;fill-opacity:1;fill-rule:nonzero;stroke:none"
         id="path230" />
      <path
         d="m 16345.8,11322 c 0,0 -42.7,-197.1 36.6,-439.1 98.5,-300.8 28.8,-632.9 -197.8,-854.5 -95.1,-93 -201.5,-175.4 -312.2,-222.6 0,0 53.4,-329.9 554,-376.2 203.6,-18.9 741.5,-64.1 1143.3,-60.5 548.7,5 957.3,86.8 957.3,86.8 l 78.2,2537.4 c 0,0 80.7,1065.3 -654.9,1210.4 l -1059.9,66.3 -544.6,-1948"
         style="fill:#000000;fill-opacity:1;fill-rule:nonzero;stroke:none"
         id="path232" />
      <path
         d="m 16278.2,11095.3 c -5.5,0 -10.9,2 -15.3,6 -9.1,8.4 -9.6,22.6 -1.2,31.7 230.4,249.6 409.4,511.4 517.6,757.3 4.9,11.3 18.2,16.5 29.5,11.5 11.4,-5 16.5,-18.2 11.5,-29.6 -110.1,-250.3 -291.9,-516.5 -525.7,-769.6 -4.4,-4.8 -10.4,-7.3 -16.4,-7.3"
         style="fill:#ffffff;fill-opacity:1;fill-rule:nonzero;stroke:none"
         id="path234" />
      <path
         d="m 16287.3,14474.3 c 0,0 -267,-8.2 -229.6,465.4 37.6,476.9 559.8,448.1 740,511.2 180.2,63.1 477.9,447.7 592.6,550.3 114.7,102.6 468.2,529.4 1197.8,124.6 0,0 128.5,-120.9 621.1,11.3 428.5,115 1240.4,3.6 1087.4,-624.6 -44.2,-181.2 -153.6,-334.3 -302.1,-433.9 -26.9,-18.1 -56.6,-36.2 -89.3,-53.9 -94.5,-51 -157.3,-149.6 -163.5,-262.9 -20.4,-369.2 -211.2,-1109.8 -1478.2,-633.6 -95.5,35.9 -199.4,23.5 -282.1,-32.3 -101.6,-68.5 -188.6,-277.4 -732.9,-296.4 -349.6,-12.2 -522.7,342.3 -642.2,496.1 -140.3,180.5 -319,178.7 -319,178.7"
         style="fill:#000000;fill-opacity:1;fill-rule:nonzero;stroke:none"
         id="path236" />
      <path
         d="m 16365.5,14474 c 0,0 -1,-84.7 -2,-122 -1,-35.3 10,-149 -53,-285.7 -6,-13.1 -1,-28.7 11.2,-36.4 l 93.7,-58.8 c 6.5,-4.1 10.9,-10.6 12.3,-18.2 8.6,-46.6 40.5,-217.7 51.7,-248.7 13,-36 48.2,-63.6 64.2,-69 42.3,-14.4 205.5,36.5 205.5,36.5 0,0 -24.1,30.7 105.9,-193.7 91.5,-157.9 -104,-416.7 -104,-416.7 0,0 736.8,-297.1 1149.8,58.3 25.6,22 14.3,67.9 -18.5,76.1 -390.5,96.6 -442.2,292.9 -596.1,598 -7.2,14.4 -24.4,21 -40.6,22.4 -65.8,5.9 -238.3,-0.6 -296.6,275.6 -1.5,7 -1.1,14.5 1.1,21.4 18.3,57.4 96.9,337 -155.4,219.2 -166.5,-77.8 -260.6,32.4 -294.5,85.9 -11,17.4 -28.8,29.8 -49,34.7 l -85.7,21.1"
         style="fill:#ffffff;fill-opacity:1;fill-rule:nonzero;stroke:none"
         id="path238" />
      <path
         d="m 16786.1,13072.2 c 134.8,-47.9 745.9,-240.4 1100.1,64.4 8,7 6.2,17.7 5.5,20.8 -1.6,6.6 -6.3,14.4 -14.8,16.5 -356.5,88.2 -438.3,256.3 -562,510.7 -15.4,31.6 -31.4,64.6 -48.7,99 -2.7,5.2 -11.5,9.2 -22.6,10.2 -4.1,0.4 -8.5,0.7 -13.4,1 -73.3,5.1 -245,17.1 -303.2,292.2 -2.3,11 -1.7,22.3 1.7,32.9 24.3,75.9 39.8,175.9 3.8,207.5 -27.2,24.1 -84.8,4.9 -128.3,-15.4 -183.4,-85.7 -286.9,37.3 -322.9,94.2 -7.9,12.4 -20.5,21.3 -35.5,25 l -58.2,14.3 c -0.4,-28.2 -1,-70.6 -1.7,-94.1 -0.1,-4.3 0,-9.9 0,-16.6 0.7,-50.1 2,-154.3 -55,-277.9 -1.2,-2.7 0,-6.3 2.7,-8 l 93.7,-58.8 c 11.8,-7.4 20,-19.5 22.5,-33.1 18.2,-98.6 42.3,-222 50.7,-245.2 10.4,-28.8 40,-51.9 50.3,-55.4 20.9,-7 108.4,11.6 181.7,33.7 0.8,0.5 1.5,1 2.3,1.6 9.8,6.6 24.7,3.1 31.9,-6.1 2.9,-3.8 4.6,-8.3 4.8,-12.8 6.6,-13.7 28.8,-55.7 102.9,-183.6 81.7,-141 -40.8,-346.6 -88.3,-417 z m 569.5,-150.9 c -311.8,0 -594.1,111.6 -613,119.2 -6.5,2.6 -11.4,8.1 -13.2,14.8 -1.9,6.7 -0.5,13.9 3.7,19.5 1.8,2.5 185.4,248.8 102.5,391.9 -55.3,95.4 -85.5,147.6 -100.1,177.5 -49.7,-14.6 -159.4,-43.7 -199.1,-30.3 -23,7.8 -63,40.9 -78.1,82.6 -11.4,31.6 -40.6,187 -52.6,252.4 -0.3,1.7 -1.4,2.6 -2.2,3.2 l -93.8,58.8 c -21.8,13.8 -30.2,41.6 -19.5,64.8 52.7,114.4 51.5,211.7 50.9,258.5 -0.1,7.4 -0.2,13.6 -0.1,18.4 1.1,37.2 2,121.7 2,121.7 0.1,6.8 3.3,13.3 8.7,17.5 5.4,4.2 12.5,5.6 19.1,4 l 85.7,-21.1 c 26.3,-6.4 48.6,-22.3 62.7,-44.5 36.9,-58.2 120.5,-145.5 266.1,-77.5 80.8,37.7 140.3,40.6 176.9,8.4 63.9,-56.2 27.7,-196.9 9.2,-254.9 -1,-3.1 -1.1,-6.6 -0.5,-9.9 51.2,-242 188.6,-251.6 262.4,-256.7 5.2,-0.4 10,-0.7 14.3,-1.1 27.4,-2.4 48.8,-15.1 58.6,-34.7 17.5,-34.6 33.6,-67.8 49.1,-99.6 122.3,-251.7 196.2,-403.6 532.4,-486.8 23.5,-5.8 41.7,-24.8 47.7,-49.6 5.8,-24.6 -1.8,-49.6 -19.9,-65.2 -160.5,-138.1 -365.9,-181.3 -559.9,-181.3"
         style="fill:#000000;fill-opacity:1;fill-rule:nonzero;stroke:none"
         id="path240" />
      <path
         d="m 16832.6,14094.8 v -0.1 z m 34.1,-51.1 c -30.9,0 -61.7,10.9 -71.9,26.9 -6.7,10.5 -3.6,24.3 6.9,31 9.7,6.2 22.4,4 29.5,-4.9 6.3,-4.3 33,-13 58.3,-4.6 24.1,8 40.6,29.3 49.2,63.3 3,12 15.2,19.3 27.3,16.2 12,-3 19.2,-15.2 16.2,-27.2 -19.2,-75.9 -68.5,-94.7 -96.3,-99.2 -6.3,-1 -12.7,-1.5 -19.2,-1.5"
         style="fill:#000000;fill-opacity:1;fill-rule:nonzero;stroke:none"
         id="path242" />
      <path
         d="m 16288.1,14062.4 c -34.2,0 -63.8,11.1 -88.3,33.1 -84.6,76.2 -73.8,259.1 -73.3,266.9 0.8,11.6 10.3,20.7 21.9,21 l 623.4,13 c 12.2,-0.1 22.6,-9.6 22.9,-22 0.3,-12.3 -9.6,-22.6 -22,-22.9 l -602,-12.6 c -0.2,-46.9 5.1,-161.4 59.2,-210 21,-18.9 47.4,-25.4 80.6,-19.7 12.2,2.2 23.8,-6.1 25.9,-18.3 2.1,-12.2 -6.1,-23.8 -18.3,-25.9 -10.4,-1.8 -20.4,-2.6 -30,-2.6"
         style="fill:#000000;fill-opacity:1;fill-rule:nonzero;stroke:none"
         id="path244" />
      <path
         d="m 16835.4,13953.9 c -2.5,25.5 15.8,48.1 41,50.4 25.1,2.4 47.5,-16.3 50,-41.8 2.5,-25.4 -15.8,-48 -40.9,-50.4 -25.2,-2.3 -47.6,16.4 -50.1,41.8"
         style="fill:#000000;fill-opacity:1;fill-rule:nonzero;stroke:none"
         id="path246" />
      <path
         d="m 17789.9,3435.8 h -426.1 v 4615.1 h 426.1 V 3435.8"
         style="fill:#ffffff;fill-opacity:1;fill-rule:nonzero;stroke:none"
         id="path248" />
      <path
         d="m 17386.2,3458.2 h 381.3 v 4570.2 h -381.3 z m 403.7,-44.8 h -426.1 c -12.4,0 -22.5,10 -22.5,22.4 v 4615.1 c 0,12.4 10.1,22.4 22.5,22.4 h 426.1 c 12.4,0 22.4,-10 22.4,-22.4 V 3435.8 c 0,-12.4 -10,-22.4 -22.4,-22.4"
         style="fill:#000000;fill-opacity:1;fill-rule:nonzero;stroke:none"
         id="path250" />
      <path
         d="m 17170.8,11822.5 v -606.9 c 0,-869.8 -684.8,-1575 -1529.5,-1575 -844.8,0 -1529.6,-705.1 -1529.6,-1574.9 0,-77.5 62.6,-140.4 139.9,-140.4 h 4048.7 c 1266.4,0 2293,1057.1 2293,2361.1 v 1615.3 c 0,518.6 -408.4,939 -912,939 h -1521.7 c -546.1,0 -988.8,-455.8 -988.8,-1018.2"
         style="fill:#ffffff;fill-opacity:1;fill-rule:nonzero;stroke:none"
         id="path252" />
      <path
         d="m 18159.6,12818.3 c -532.8,0 -966.4,-446.7 -966.4,-995.8 v -606.9 c 0,-880.8 -696.2,-1597.4 -1551.9,-1597.4 -831,0 -1507.1,-696.5 -1507.1,-1552.5 0,-65 52.6,-117.9 117.4,-117.9 h 4048.7 c 1252,0 2270.5,1049.1 2270.5,2338.6 v 1615.3 c 0,505.4 -399,916.6 -889.5,916.6 z m 140.7,-4915.4 h -4048.7 c -89.5,0 -162.3,73 -162.3,162.8 0,880.8 696.2,1597.4 1552,1597.4 831,0 1507,696.4 1507,1552.5 v 606.9 c 0,573.8 453.7,1040.7 1011.3,1040.7 h 1521.7 c 515.2,0 934.4,-431.4 934.4,-961.5 v -1615.3 c 0,-1314.3 -1038.7,-2383.5 -2315.4,-2383.5"
         style="fill:#000000;fill-opacity:1;fill-rule:nonzero;stroke:none"
         id="path254" />
      <path
         d="m 15035.4,8521.1 c -4.4,0 -8.9,1.3 -12.8,4 -10.2,7.2 -12.6,21.2 -5.5,31.3 212.6,302.5 552.2,475.9 1009.5,515.4 274.8,23.8 541.1,97.2 730.8,201.3 474.5,260.6 1105.4,722.3 1105.4,1718.6 v 114.3 c 0,990.4 341.8,1040.6 899.6,1040.6 12.4,0 22.4,-10 22.4,-22.4 0,-12.4 -10,-22.4 -22.4,-22.4 -545.9,0 -854.8,-46.3 -854.8,-995.8 v -114.3 c 0,-1020.1 -644.1,-1491.8 -1128.6,-1757.9 -194.9,-107.1 -467.8,-182.4 -748.5,-206.7 -443.5,-38.3 -772.1,-205.3 -976.7,-496.5 -4.4,-6.2 -11.3,-9.5 -18.4,-9.5"
         style="fill:#000000;fill-opacity:1;fill-rule:nonzero;stroke:none"
         id="path256" />
      <path
         d="m 15579.6,3504.2 1885.9,166 h 172.9 l 1925.3,-166 v -131.8 h -3984.1 v 131.8"
         style="fill:#ffffff;fill-opacity:1;fill-rule:nonzero;stroke:none"
         id="path258" />
      <path
         d="m 15602.1,3394.9 h 3939.2 v 88.7 l -1904.8,164.3 -171,-0.1 -1863.4,-164.2 z m 3961.6,-44.9 h -3984.1 c -12.4,0 -22.4,10.1 -22.4,22.4 v 131.8 c 0,11.6 8.9,21.3 20.5,22.3 l 1885.8,166.1 174.9,0.1 1927.2,-166.2 c 11.6,-1 20.5,-10.7 20.5,-22.3 v -131.8 c 0,-12.3 -10,-22.4 -22.4,-22.4"
         style="fill:#000000;fill-opacity:1;fill-rule:nonzero;stroke:none"
         id="path260" />
      <path
         d="m 6518.95,17234.1 c -4.12,-85.2 -87.92,-150.4 -187.18,-145.6 -99.27,4.8 -176.39,77.7 -172.28,162.9 4.12,85.3 87.92,150.5 187.18,145.7 99.26,-4.8 176.39,-77.8 172.28,-163"
         style="fill:#000000;fill-opacity:1;fill-rule:nonzero;stroke:none"
         id="path262" />
      <path
         d="m 6694.14,18116.7 c -101.34,71.1 -104.82,141.8 -183.13,158.4 -78.31,16.6 -66.38,-125 -66.38,-125 l -42.3,-876 c -1.53,-31.7 25.61,-58.9 57.43,-60.4 31.81,-1.5 56.35,-11.3 57.88,20.5 l 42.99,832.4 c 215.41,-48.2 316.11,-324 316.11,-324 26.5,150.4 -92.31,310.8 -182.6,374.1"
         style="fill:#000000;fill-opacity:1;fill-rule:nonzero;stroke:none"
         id="path264" />
      <path
         d="m 15265.4,19880.9 c 5.5,-85.2 -70.5,-159.3 -169.7,-165.6 -99.2,-6.3 -184,57.6 -189.4,142.7 -5.4,85.2 70.6,159.3 169.8,165.6 99.1,6.3 183.9,-57.6 189.3,-142.7"
         style="fill:#000000;fill-opacity:1;fill-rule:nonzero;stroke:none"
         id="path266" />
      <path
         d="m 15341,20777.5 c -108.7,59.4 -120,129.2 -199.7,137 -79.7,7.7 -52,-131.6 -52,-131.6 l 55.8,-875.2 c 2,-31.8 32,-55.7 63.8,-53.7 31.8,2 57.3,-5 55.2,26.8 l -50.2,832 c 219.4,-23.8 350.3,-286.7 350.3,-286.7 9.6,152.4 -126.4,298.5 -223.2,351.4"
         style="fill:#000000;fill-opacity:1;fill-rule:nonzero;stroke:none"
         id="path268" />
      <path
         d="m 8411.88,19753.3 c 9.69,103.2 34.49,881.7 8,881.7 -0.02,0 -0.04,0 -0.06,0 -10.86,0 -19.12,3.5 -26.79,1.2 l -508.41,-42.6 c -69.37,7.3 -61.59,-123.8 -61.59,-123.8 l -55.65,-764.1 c -18.74,7.4 -39.05,12.5 -60.65,14 -99.1,7.2 -184.46,-55.8 -190.67,-140.9 -6.2,-85.1 69.12,-159.9 168.24,-167.1 99.11,-7.3 184.49,55.9 190.69,141 0.41,5.4 0.45,10.8 0.2,16.1 9.12,99.6 57.02,640.5 46.08,893.9 l 430.2,51.7 -45.62,-625.7 c -18.74,7.3 -39.09,12.3 -60.68,13.9 -99.11,7.2 -184.49,-56 -190.7,-141 -6.19,-85.1 69.12,-158.8 168.23,-166 99.12,-7.2 189.39,152.7 189.18,157.7"
         style="fill:#000000;fill-opacity:1;fill-rule:nonzero;stroke:none"
         id="path270" />
      <path
         d="m 9000.43,15992.2 c 9.68,103.2 34.49,881.8 8,881.8 -0.02,0 -0.04,0 -0.06,0 -10.86,0 -19.12,3.5 -26.79,1.2 l -508.41,-42.6 c -69.37,7.3 -61.59,-123.9 -61.59,-123.9 l -55.65,-764 c -18.73,7.4 -39.05,12.4 -60.65,14 -99.1,7.2 -184.46,-55.9 -190.67,-141 -6.2,-85.1 69.12,-159.9 168.24,-167.1 99.11,-7.2 184.49,55.9 190.69,141 0.41,5.5 0.45,10.9 0.2,16.2 9.12,99.6 57.02,640.5 46.08,893.8 l 430.2,51.7 -45.62,-625.7 c -18.74,7.4 -39.09,12.3 -60.68,13.9 -99.11,7.2 -184.49,-55.9 -190.7,-141 -6.19,-85.1 69.12,-158.7 168.23,-165.9 99.12,-7.3 189.39,152.6 189.18,157.6"
         style="fill:#000000;fill-opacity:1;fill-rule:nonzero;stroke:none"
         id="path272" />
      <path
         d="m 19635.2,5740.9 c -10.5,0 -19.9,7.5 -22,18.2 -2.3,12.2 5.7,24 17.8,26.3 l 90,17.3 c 12,2.3 23.9,-5.6 26.2,-17.8 2.3,-12.2 -5.6,-24 -17.8,-26.3 l -89.9,-17.3 c -1.4,-0.2 -2.9,-0.4 -4.3,-0.4"
         style="fill:#000000;fill-opacity:1;fill-rule:nonzero;stroke:none"
         id="path274" />
      <path
         d="m 20065.9,5823.7 c -10.5,0 -19.9,7.4 -22,18.2 -2.3,12.1 5.6,23.9 17.8,26.2 l 89.9,17.3 c 12.1,2.4 23.9,-5.6 26.3,-17.8 2.3,-12.1 -5.6,-23.9 -17.8,-26.3 l -89.9,-17.2 c -1.4,-0.3 -2.9,-0.4 -4.3,-0.4"
         style="fill:#000000;fill-opacity:1;fill-rule:nonzero;stroke:none"
         id="path276" />
      <path
         d="m 19948.8,5530.5 c -10.4,0 -19.8,7.3 -21.9,17.9 l -18.4,90 c -2.5,12.1 5.3,24 17.4,26.5 12.2,2.5 24,-5.4 26.5,-17.5 l 18.4,-90 c 2.5,-12.1 -5.3,-24 -17.5,-26.5 -1.5,-0.3 -3,-0.4 -4.5,-0.4"
         style="fill:#000000;fill-opacity:1;fill-rule:nonzero;stroke:none"
         id="path278" />
      <path
         d="m 19860.7,5961.4 c -10.4,0 -19.8,7.3 -22,18 l -18.4,89.9 c -2.5,12.2 5.4,24 17.5,26.5 12.1,2.6 24,-5.3 26.5,-17.5 l 18.4,-89.9 c 2.5,-12.2 -5.4,-24 -17.5,-26.5 -1.5,-0.3 -3,-0.5 -4.5,-0.5"
         style="fill:#000000;fill-opacity:1;fill-rule:nonzero;stroke:none"
         id="path280" />
      <path
         d="m 20648.3,6671 c -12.4,0 -24.8,-1.2 -37.4,-3.7 -50.3,-10 -93.8,-39 -122.3,-81.8 -28.6,-42.9 -38.8,-94.3 -28.7,-144.9 20.7,-104.3 122.2,-172.5 226.2,-151.9 50.4,10 93.9,39.1 122.4,81.9 28.5,42.8 38.8,94.2 28.7,144.8 -18.2,91.8 -99,155.6 -188.9,155.6 z m 0.5,-430.8 c -111,0 -210.5,78.6 -232.9,191.7 -12.4,62.3 0.2,125.7 35.3,178.5 35.2,52.7 88.9,88.6 151,100.9 128.2,25.4 253.5,-58.5 279,-187.2 12.4,-62.3 -0.2,-125.7 -35.4,-178.4 -35.2,-52.8 -88.8,-88.7 -151,-101 -15.4,-3 -30.8,-4.5 -46,-4.5"
         style="fill:#000000;fill-opacity:1;fill-rule:nonzero;stroke:none"
         id="path282" />
      <path
         d="m 6340.37,19789.6 c -3.82,0 -7.69,0.9 -11.23,3 -10.72,6.2 -14.37,19.9 -8.16,30.7 l 87.23,150.4 c 6.22,10.7 19.98,14.4 30.66,8.2 10.73,-6.2 14.38,-20 8.17,-30.7 l -87.24,-150.5 c -4.16,-7.1 -11.68,-11.1 -19.43,-11.1"
         style="fill:#000000;fill-opacity:1;fill-rule:nonzero;stroke:none"
         id="path284" />
      <path
         d="m 6137.18,19439 c -3.83,0 -7.69,1 -11.23,3 -10.73,6.2 -14.38,19.9 -8.16,30.7 l 87.22,150.5 c 6.24,10.7 19.98,14.3 30.67,8.1 10.73,-6.2 14.37,-19.9 8.16,-30.6 l -87.23,-150.5 c -4.16,-7.2 -11.69,-11.2 -19.43,-11.2"
         style="fill:#000000;fill-opacity:1;fill-rule:nonzero;stroke:none"
         id="path286" />
      <path
         d="m 6182.26,19747.4 c -3.81,0 -7.68,1 -11.22,3.1 l -150.63,87.1 c -10.72,6.2 -14.38,20 -8.18,30.7 6.2,10.7 19.94,14.4 30.66,8.2 l 150.63,-87.2 c 10.73,-6.2 14.39,-19.9 8.18,-30.7 -4.16,-7.1 -11.7,-11.2 -19.44,-11.2"
         style="fill:#000000;fill-opacity:1;fill-rule:nonzero;stroke:none"
         id="path288" />
      <path
         d="m 6533.14,19544.4 c -3.81,0 -7.68,1 -11.21,3.1 l -150.63,87.1 c -10.73,6.2 -14.39,19.9 -8.18,30.7 6.21,10.7 19.91,14.4 30.66,8.1 l 150.63,-87.1 c 10.72,-6.2 14.38,-19.9 8.18,-30.7 -4.16,-7.1 -11.7,-11.2 -19.45,-11.2"
         style="fill:#000000;fill-opacity:1;fill-rule:nonzero;stroke:none"
         id="path290" />
      <path
         d="m 9882.92,14014.7 h 0.22 z m 3.39,-22.2 c -77.68,-11.9 -132,-85.9 -121.07,-164.9 5.33,-38.5 25.17,-72.3 55.85,-95.2 30.07,-22.4 67.07,-31.5 104.14,-25.9 77.67,11.9 131.97,85.9 121.07,164.9 -5.3,38.5 -25.2,72.3 -55.87,95.2 -30.04,22.4 -67.05,31.6 -104.12,25.9 z m 17.38,-332.5 c -39.28,0 -77.32,12.5 -109.41,36.4 -40.4,30.2 -66.5,74.6 -73.49,125.1 -14.27,103.1 56.93,199.8 158.73,215.3 49.08,7.6 97.98,-4.6 137.78,-34.3 40.4,-30.1 66.5,-74.5 73.5,-125 14.2,-103.1 -57,-199.8 -158.78,-215.4 -9.47,-1.4 -18.93,-2.1 -28.33,-2.1"
         style="fill:#000000;fill-opacity:1;fill-rule:nonzero;stroke:none"
         id="path292" />
      <path
         d="m 8813.01,14450.1 c -3.83,0 -7.69,1 -11.23,3.1 -10.73,6.2 -14.38,19.9 -8.17,30.6 l 87.23,150.5 c 6.23,10.7 19.97,14.4 30.67,8.2 10.72,-6.2 14.37,-20 8.16,-30.7 l -87.23,-150.5 c -4.16,-7.2 -11.69,-11.2 -19.43,-11.2"
         style="fill:#000000;fill-opacity:1;fill-rule:nonzero;stroke:none"
         id="path294" />
      <path
         d="m 8609.81,14099.6 c -3.82,0 -7.69,0.9 -11.23,3 -10.72,6.2 -14.37,19.9 -8.16,30.6 l 87.23,150.5 c 6.21,10.7 19.98,14.4 30.67,8.2 10.72,-6.2 14.37,-19.9 8.15,-30.7 l -87.22,-150.5 c -4.17,-7.1 -11.69,-11.1 -19.44,-11.1"
         style="fill:#000000;fill-opacity:1;fill-rule:nonzero;stroke:none"
         id="path296" />
      <path
         d="m 8654.89,14408 c -3.81,0 -7.67,1 -11.21,3 l -150.63,87.2 c -10.73,6.2 -14.39,19.9 -8.19,30.6 6.21,10.8 19.93,14.4 30.67,8.2 l 150.63,-87.1 c 10.72,-6.2 14.38,-20 8.18,-30.7 -4.16,-7.2 -11.7,-11.2 -19.45,-11.2"
         style="fill:#000000;fill-opacity:1;fill-rule:nonzero;stroke:none"
         id="path298" />
      <path
         d="m 9005.78,14205 c -3.81,0 -7.68,1 -11.22,3 l -150.63,87.2 c -10.72,6.2 -14.38,19.9 -8.18,30.6 6.21,10.7 19.94,14.4 30.67,8.2 l 150.62,-87.1 c 10.73,-6.2 14.39,-20 8.18,-30.7 -4.16,-7.2 -11.69,-11.2 -19.44,-11.2"
         style="fill:#000000;fill-opacity:1;fill-rule:nonzero;stroke:none"
         id="path300" />
    </g>
  </g>
</svg>
